G04 #@! TF.GenerationSoftware,KiCad,Pcbnew,7.0.1-0*
G04 #@! TF.CreationDate,2023-03-25T18:19:26+07:00*
G04 #@! TF.ProjectId,Gecko_Split,4765636b-6f5f-4537-906c-69742e6b6963,rev?*
G04 #@! TF.SameCoordinates,Original*
G04 #@! TF.FileFunction,Soldermask,Bot*
G04 #@! TF.FilePolarity,Negative*
%FSLAX46Y46*%
G04 Gerber Fmt 4.6, Leading zero omitted, Abs format (unit mm)*
G04 Created by KiCad (PCBNEW 7.0.1-0) date 2023-03-25 18:19:26*
%MOMM*%
%LPD*%
G01*
G04 APERTURE LIST*
G04 Aperture macros list*
%AMRoundRect*
0 Rectangle with rounded corners*
0 $1 Rounding radius*
0 $2 $3 $4 $5 $6 $7 $8 $9 X,Y pos of 4 corners*
0 Add a 4 corners polygon primitive as box body*
4,1,4,$2,$3,$4,$5,$6,$7,$8,$9,$2,$3,0*
0 Add four circle primitives for the rounded corners*
1,1,$1+$1,$2,$3*
1,1,$1+$1,$4,$5*
1,1,$1+$1,$6,$7*
1,1,$1+$1,$8,$9*
0 Add four rect primitives between the rounded corners*
20,1,$1+$1,$2,$3,$4,$5,0*
20,1,$1+$1,$4,$5,$6,$7,0*
20,1,$1+$1,$6,$7,$8,$9,0*
20,1,$1+$1,$8,$9,$2,$3,0*%
G04 Aperture macros list end*
%ADD10C,0.100000*%
%ADD11C,0.150000*%
%ADD12C,0.300000*%
%ADD13C,0.400000*%
%ADD14RoundRect,0.200000X-0.900000X-0.410000X0.900000X-0.410000X0.900000X0.410000X-0.900000X0.410000X0*%
%ADD15RoundRect,0.200000X-0.805070X0.574423X0.094930X-0.984423X0.805070X-0.574423X-0.094930X0.984423X0*%
%ADD16C,1.797000*%
%ADD17C,1.600000*%
%ADD18RoundRect,0.200000X-0.600000X-1.050000X0.600000X-1.050000X0.600000X1.050000X-0.600000X1.050000X0*%
%ADD19C,5.300000*%
%ADD20C,1.924000*%
%ADD21C,2.900000*%
%ADD22C,2.600000*%
%ADD23RoundRect,0.200000X-0.750000X-0.450000X0.750000X-0.450000X0.750000X0.450000X-0.750000X0.450000X0*%
%ADD24C,2.200000*%
%ADD25C,3.400000*%
%ADD26C,4.400000*%
%ADD27RoundRect,0.200000X1.275000X1.250000X-1.275000X1.250000X-1.275000X-1.250000X1.275000X-1.250000X0*%
%ADD28RoundRect,0.200000X1.720032X-0.479182X0.445032X1.729182X-1.720032X0.479182X-0.445032X-1.729182X0*%
%ADD29RoundRect,0.200000X-0.483690X-1.328926X1.328926X-0.483690X0.483690X1.328926X-1.328926X0.483690X0*%
%ADD30C,2.400000*%
%ADD31RoundRect,0.200000X-1.027474X-1.582497X1.872711X-0.230119X1.027474X1.582497X-1.872711X0.230119X0*%
%ADD32RoundRect,0.200000X0.571500X-0.317500X0.571500X0.317500X-0.571500X0.317500X-0.571500X-0.317500X0*%
G04 #@! TA.AperFunction,Profile*
%ADD33C,0.200000*%
G04 #@! TD*
G04 #@! TA.AperFunction,Profile*
%ADD34C,0.050000*%
G04 #@! TD*
G04 APERTURE END LIST*
D10*
D11*
X177002200Y-166007200D02*
X285002200Y-166007200D01*
X285002200Y-198007200D01*
X177002200Y-198007200D01*
X177002200Y-166007200D01*
D10*
D11*
X10000000Y-10000000D02*
X287002200Y-10000000D01*
X287002200Y-200007200D01*
X10000000Y-200007200D01*
X10000000Y-10000000D01*
D10*
D11*
X12000000Y-12000000D02*
X285002200Y-12000000D01*
X285002200Y-198007200D01*
X12000000Y-198007200D01*
X12000000Y-12000000D01*
D10*
D11*
X60000000Y-12000000D02*
X60000000Y-10000000D01*
D10*
D11*
X110000000Y-12000000D02*
X110000000Y-10000000D01*
D10*
D11*
X160000000Y-12000000D02*
X160000000Y-10000000D01*
D10*
D11*
X210000000Y-12000000D02*
X210000000Y-10000000D01*
D10*
D11*
X260000000Y-12000000D02*
X260000000Y-10000000D01*
D10*
D11*
X35990476Y-11601404D02*
X35247619Y-11601404D01*
X35619047Y-11601404D02*
X35619047Y-10301404D01*
X35619047Y-10301404D02*
X35495238Y-10487119D01*
X35495238Y-10487119D02*
X35371428Y-10610928D01*
X35371428Y-10610928D02*
X35247619Y-10672833D01*
D10*
D11*
X85247619Y-10425214D02*
X85309523Y-10363309D01*
X85309523Y-10363309D02*
X85433333Y-10301404D01*
X85433333Y-10301404D02*
X85742857Y-10301404D01*
X85742857Y-10301404D02*
X85866666Y-10363309D01*
X85866666Y-10363309D02*
X85928571Y-10425214D01*
X85928571Y-10425214D02*
X85990476Y-10549023D01*
X85990476Y-10549023D02*
X85990476Y-10672833D01*
X85990476Y-10672833D02*
X85928571Y-10858547D01*
X85928571Y-10858547D02*
X85185714Y-11601404D01*
X85185714Y-11601404D02*
X85990476Y-11601404D01*
D10*
D11*
X135185714Y-10301404D02*
X135990476Y-10301404D01*
X135990476Y-10301404D02*
X135557142Y-10796642D01*
X135557142Y-10796642D02*
X135742857Y-10796642D01*
X135742857Y-10796642D02*
X135866666Y-10858547D01*
X135866666Y-10858547D02*
X135928571Y-10920452D01*
X135928571Y-10920452D02*
X135990476Y-11044261D01*
X135990476Y-11044261D02*
X135990476Y-11353785D01*
X135990476Y-11353785D02*
X135928571Y-11477595D01*
X135928571Y-11477595D02*
X135866666Y-11539500D01*
X135866666Y-11539500D02*
X135742857Y-11601404D01*
X135742857Y-11601404D02*
X135371428Y-11601404D01*
X135371428Y-11601404D02*
X135247619Y-11539500D01*
X135247619Y-11539500D02*
X135185714Y-11477595D01*
D10*
D11*
X185866666Y-10734738D02*
X185866666Y-11601404D01*
X185557142Y-10239500D02*
X185247619Y-11168071D01*
X185247619Y-11168071D02*
X186052380Y-11168071D01*
D10*
D11*
X235928571Y-10301404D02*
X235309523Y-10301404D01*
X235309523Y-10301404D02*
X235247619Y-10920452D01*
X235247619Y-10920452D02*
X235309523Y-10858547D01*
X235309523Y-10858547D02*
X235433333Y-10796642D01*
X235433333Y-10796642D02*
X235742857Y-10796642D01*
X235742857Y-10796642D02*
X235866666Y-10858547D01*
X235866666Y-10858547D02*
X235928571Y-10920452D01*
X235928571Y-10920452D02*
X235990476Y-11044261D01*
X235990476Y-11044261D02*
X235990476Y-11353785D01*
X235990476Y-11353785D02*
X235928571Y-11477595D01*
X235928571Y-11477595D02*
X235866666Y-11539500D01*
X235866666Y-11539500D02*
X235742857Y-11601404D01*
X235742857Y-11601404D02*
X235433333Y-11601404D01*
X235433333Y-11601404D02*
X235309523Y-11539500D01*
X235309523Y-11539500D02*
X235247619Y-11477595D01*
D10*
D11*
X285866666Y-10301404D02*
X285619047Y-10301404D01*
X285619047Y-10301404D02*
X285495238Y-10363309D01*
X285495238Y-10363309D02*
X285433333Y-10425214D01*
X285433333Y-10425214D02*
X285309523Y-10610928D01*
X285309523Y-10610928D02*
X285247619Y-10858547D01*
X285247619Y-10858547D02*
X285247619Y-11353785D01*
X285247619Y-11353785D02*
X285309523Y-11477595D01*
X285309523Y-11477595D02*
X285371428Y-11539500D01*
X285371428Y-11539500D02*
X285495238Y-11601404D01*
X285495238Y-11601404D02*
X285742857Y-11601404D01*
X285742857Y-11601404D02*
X285866666Y-11539500D01*
X285866666Y-11539500D02*
X285928571Y-11477595D01*
X285928571Y-11477595D02*
X285990476Y-11353785D01*
X285990476Y-11353785D02*
X285990476Y-11044261D01*
X285990476Y-11044261D02*
X285928571Y-10920452D01*
X285928571Y-10920452D02*
X285866666Y-10858547D01*
X285866666Y-10858547D02*
X285742857Y-10796642D01*
X285742857Y-10796642D02*
X285495238Y-10796642D01*
X285495238Y-10796642D02*
X285371428Y-10858547D01*
X285371428Y-10858547D02*
X285309523Y-10920452D01*
X285309523Y-10920452D02*
X285247619Y-11044261D01*
D10*
D11*
X60000000Y-198007200D02*
X60000000Y-200007200D01*
D10*
D11*
X110000000Y-198007200D02*
X110000000Y-200007200D01*
D10*
D11*
X160000000Y-198007200D02*
X160000000Y-200007200D01*
D10*
D11*
X210000000Y-198007200D02*
X210000000Y-200007200D01*
D10*
D11*
X260000000Y-198007200D02*
X260000000Y-200007200D01*
D10*
D11*
X35990476Y-199608604D02*
X35247619Y-199608604D01*
X35619047Y-199608604D02*
X35619047Y-198308604D01*
X35619047Y-198308604D02*
X35495238Y-198494319D01*
X35495238Y-198494319D02*
X35371428Y-198618128D01*
X35371428Y-198618128D02*
X35247619Y-198680033D01*
D10*
D11*
X85247619Y-198432414D02*
X85309523Y-198370509D01*
X85309523Y-198370509D02*
X85433333Y-198308604D01*
X85433333Y-198308604D02*
X85742857Y-198308604D01*
X85742857Y-198308604D02*
X85866666Y-198370509D01*
X85866666Y-198370509D02*
X85928571Y-198432414D01*
X85928571Y-198432414D02*
X85990476Y-198556223D01*
X85990476Y-198556223D02*
X85990476Y-198680033D01*
X85990476Y-198680033D02*
X85928571Y-198865747D01*
X85928571Y-198865747D02*
X85185714Y-199608604D01*
X85185714Y-199608604D02*
X85990476Y-199608604D01*
D10*
D11*
X135185714Y-198308604D02*
X135990476Y-198308604D01*
X135990476Y-198308604D02*
X135557142Y-198803842D01*
X135557142Y-198803842D02*
X135742857Y-198803842D01*
X135742857Y-198803842D02*
X135866666Y-198865747D01*
X135866666Y-198865747D02*
X135928571Y-198927652D01*
X135928571Y-198927652D02*
X135990476Y-199051461D01*
X135990476Y-199051461D02*
X135990476Y-199360985D01*
X135990476Y-199360985D02*
X135928571Y-199484795D01*
X135928571Y-199484795D02*
X135866666Y-199546700D01*
X135866666Y-199546700D02*
X135742857Y-199608604D01*
X135742857Y-199608604D02*
X135371428Y-199608604D01*
X135371428Y-199608604D02*
X135247619Y-199546700D01*
X135247619Y-199546700D02*
X135185714Y-199484795D01*
D10*
D11*
X185866666Y-198741938D02*
X185866666Y-199608604D01*
X185557142Y-198246700D02*
X185247619Y-199175271D01*
X185247619Y-199175271D02*
X186052380Y-199175271D01*
D10*
D11*
X235928571Y-198308604D02*
X235309523Y-198308604D01*
X235309523Y-198308604D02*
X235247619Y-198927652D01*
X235247619Y-198927652D02*
X235309523Y-198865747D01*
X235309523Y-198865747D02*
X235433333Y-198803842D01*
X235433333Y-198803842D02*
X235742857Y-198803842D01*
X235742857Y-198803842D02*
X235866666Y-198865747D01*
X235866666Y-198865747D02*
X235928571Y-198927652D01*
X235928571Y-198927652D02*
X235990476Y-199051461D01*
X235990476Y-199051461D02*
X235990476Y-199360985D01*
X235990476Y-199360985D02*
X235928571Y-199484795D01*
X235928571Y-199484795D02*
X235866666Y-199546700D01*
X235866666Y-199546700D02*
X235742857Y-199608604D01*
X235742857Y-199608604D02*
X235433333Y-199608604D01*
X235433333Y-199608604D02*
X235309523Y-199546700D01*
X235309523Y-199546700D02*
X235247619Y-199484795D01*
D10*
D11*
X285866666Y-198308604D02*
X285619047Y-198308604D01*
X285619047Y-198308604D02*
X285495238Y-198370509D01*
X285495238Y-198370509D02*
X285433333Y-198432414D01*
X285433333Y-198432414D02*
X285309523Y-198618128D01*
X285309523Y-198618128D02*
X285247619Y-198865747D01*
X285247619Y-198865747D02*
X285247619Y-199360985D01*
X285247619Y-199360985D02*
X285309523Y-199484795D01*
X285309523Y-199484795D02*
X285371428Y-199546700D01*
X285371428Y-199546700D02*
X285495238Y-199608604D01*
X285495238Y-199608604D02*
X285742857Y-199608604D01*
X285742857Y-199608604D02*
X285866666Y-199546700D01*
X285866666Y-199546700D02*
X285928571Y-199484795D01*
X285928571Y-199484795D02*
X285990476Y-199360985D01*
X285990476Y-199360985D02*
X285990476Y-199051461D01*
X285990476Y-199051461D02*
X285928571Y-198927652D01*
X285928571Y-198927652D02*
X285866666Y-198865747D01*
X285866666Y-198865747D02*
X285742857Y-198803842D01*
X285742857Y-198803842D02*
X285495238Y-198803842D01*
X285495238Y-198803842D02*
X285371428Y-198865747D01*
X285371428Y-198865747D02*
X285309523Y-198927652D01*
X285309523Y-198927652D02*
X285247619Y-199051461D01*
D10*
D11*
X10000000Y-60000000D02*
X12000000Y-60000000D01*
D10*
D11*
X10000000Y-110000000D02*
X12000000Y-110000000D01*
D10*
D11*
X10000000Y-160000000D02*
X12000000Y-160000000D01*
D10*
D11*
X10690476Y-35229976D02*
X11309523Y-35229976D01*
X10566666Y-35601404D02*
X10999999Y-34301404D01*
X10999999Y-34301404D02*
X11433333Y-35601404D01*
D10*
D11*
X11092857Y-84920452D02*
X11278571Y-84982357D01*
X11278571Y-84982357D02*
X11340476Y-85044261D01*
X11340476Y-85044261D02*
X11402380Y-85168071D01*
X11402380Y-85168071D02*
X11402380Y-85353785D01*
X11402380Y-85353785D02*
X11340476Y-85477595D01*
X11340476Y-85477595D02*
X11278571Y-85539500D01*
X11278571Y-85539500D02*
X11154761Y-85601404D01*
X11154761Y-85601404D02*
X10659523Y-85601404D01*
X10659523Y-85601404D02*
X10659523Y-84301404D01*
X10659523Y-84301404D02*
X11092857Y-84301404D01*
X11092857Y-84301404D02*
X11216666Y-84363309D01*
X11216666Y-84363309D02*
X11278571Y-84425214D01*
X11278571Y-84425214D02*
X11340476Y-84549023D01*
X11340476Y-84549023D02*
X11340476Y-84672833D01*
X11340476Y-84672833D02*
X11278571Y-84796642D01*
X11278571Y-84796642D02*
X11216666Y-84858547D01*
X11216666Y-84858547D02*
X11092857Y-84920452D01*
X11092857Y-84920452D02*
X10659523Y-84920452D01*
D10*
D11*
X11402380Y-135477595D02*
X11340476Y-135539500D01*
X11340476Y-135539500D02*
X11154761Y-135601404D01*
X11154761Y-135601404D02*
X11030952Y-135601404D01*
X11030952Y-135601404D02*
X10845238Y-135539500D01*
X10845238Y-135539500D02*
X10721428Y-135415690D01*
X10721428Y-135415690D02*
X10659523Y-135291880D01*
X10659523Y-135291880D02*
X10597619Y-135044261D01*
X10597619Y-135044261D02*
X10597619Y-134858547D01*
X10597619Y-134858547D02*
X10659523Y-134610928D01*
X10659523Y-134610928D02*
X10721428Y-134487119D01*
X10721428Y-134487119D02*
X10845238Y-134363309D01*
X10845238Y-134363309D02*
X11030952Y-134301404D01*
X11030952Y-134301404D02*
X11154761Y-134301404D01*
X11154761Y-134301404D02*
X11340476Y-134363309D01*
X11340476Y-134363309D02*
X11402380Y-134425214D01*
D10*
D11*
X10659523Y-185601404D02*
X10659523Y-184301404D01*
X10659523Y-184301404D02*
X10969047Y-184301404D01*
X10969047Y-184301404D02*
X11154761Y-184363309D01*
X11154761Y-184363309D02*
X11278571Y-184487119D01*
X11278571Y-184487119D02*
X11340476Y-184610928D01*
X11340476Y-184610928D02*
X11402380Y-184858547D01*
X11402380Y-184858547D02*
X11402380Y-185044261D01*
X11402380Y-185044261D02*
X11340476Y-185291880D01*
X11340476Y-185291880D02*
X11278571Y-185415690D01*
X11278571Y-185415690D02*
X11154761Y-185539500D01*
X11154761Y-185539500D02*
X10969047Y-185601404D01*
X10969047Y-185601404D02*
X10659523Y-185601404D01*
D10*
D11*
X287002200Y-60000000D02*
X285002200Y-60000000D01*
D10*
D11*
X287002200Y-110000000D02*
X285002200Y-110000000D01*
D10*
D11*
X287002200Y-160000000D02*
X285002200Y-160000000D01*
D10*
D11*
X285692676Y-35229976D02*
X286311723Y-35229976D01*
X285568866Y-35601404D02*
X286002199Y-34301404D01*
X286002199Y-34301404D02*
X286435533Y-35601404D01*
D10*
D11*
X286095057Y-84920452D02*
X286280771Y-84982357D01*
X286280771Y-84982357D02*
X286342676Y-85044261D01*
X286342676Y-85044261D02*
X286404580Y-85168071D01*
X286404580Y-85168071D02*
X286404580Y-85353785D01*
X286404580Y-85353785D02*
X286342676Y-85477595D01*
X286342676Y-85477595D02*
X286280771Y-85539500D01*
X286280771Y-85539500D02*
X286156961Y-85601404D01*
X286156961Y-85601404D02*
X285661723Y-85601404D01*
X285661723Y-85601404D02*
X285661723Y-84301404D01*
X285661723Y-84301404D02*
X286095057Y-84301404D01*
X286095057Y-84301404D02*
X286218866Y-84363309D01*
X286218866Y-84363309D02*
X286280771Y-84425214D01*
X286280771Y-84425214D02*
X286342676Y-84549023D01*
X286342676Y-84549023D02*
X286342676Y-84672833D01*
X286342676Y-84672833D02*
X286280771Y-84796642D01*
X286280771Y-84796642D02*
X286218866Y-84858547D01*
X286218866Y-84858547D02*
X286095057Y-84920452D01*
X286095057Y-84920452D02*
X285661723Y-84920452D01*
D10*
D11*
X286404580Y-135477595D02*
X286342676Y-135539500D01*
X286342676Y-135539500D02*
X286156961Y-135601404D01*
X286156961Y-135601404D02*
X286033152Y-135601404D01*
X286033152Y-135601404D02*
X285847438Y-135539500D01*
X285847438Y-135539500D02*
X285723628Y-135415690D01*
X285723628Y-135415690D02*
X285661723Y-135291880D01*
X285661723Y-135291880D02*
X285599819Y-135044261D01*
X285599819Y-135044261D02*
X285599819Y-134858547D01*
X285599819Y-134858547D02*
X285661723Y-134610928D01*
X285661723Y-134610928D02*
X285723628Y-134487119D01*
X285723628Y-134487119D02*
X285847438Y-134363309D01*
X285847438Y-134363309D02*
X286033152Y-134301404D01*
X286033152Y-134301404D02*
X286156961Y-134301404D01*
X286156961Y-134301404D02*
X286342676Y-134363309D01*
X286342676Y-134363309D02*
X286404580Y-134425214D01*
D10*
D11*
X285661723Y-185601404D02*
X285661723Y-184301404D01*
X285661723Y-184301404D02*
X285971247Y-184301404D01*
X285971247Y-184301404D02*
X286156961Y-184363309D01*
X286156961Y-184363309D02*
X286280771Y-184487119D01*
X286280771Y-184487119D02*
X286342676Y-184610928D01*
X286342676Y-184610928D02*
X286404580Y-184858547D01*
X286404580Y-184858547D02*
X286404580Y-185044261D01*
X286404580Y-185044261D02*
X286342676Y-185291880D01*
X286342676Y-185291880D02*
X286280771Y-185415690D01*
X286280771Y-185415690D02*
X286156961Y-185539500D01*
X286156961Y-185539500D02*
X285971247Y-185601404D01*
X285971247Y-185601404D02*
X285661723Y-185601404D01*
D10*
D11*
X200359342Y-193801128D02*
X200359342Y-192301128D01*
X200359342Y-192301128D02*
X200716485Y-192301128D01*
X200716485Y-192301128D02*
X200930771Y-192372557D01*
X200930771Y-192372557D02*
X201073628Y-192515414D01*
X201073628Y-192515414D02*
X201145057Y-192658271D01*
X201145057Y-192658271D02*
X201216485Y-192943985D01*
X201216485Y-192943985D02*
X201216485Y-193158271D01*
X201216485Y-193158271D02*
X201145057Y-193443985D01*
X201145057Y-193443985D02*
X201073628Y-193586842D01*
X201073628Y-193586842D02*
X200930771Y-193729700D01*
X200930771Y-193729700D02*
X200716485Y-193801128D01*
X200716485Y-193801128D02*
X200359342Y-193801128D01*
X202502200Y-193801128D02*
X202502200Y-193015414D01*
X202502200Y-193015414D02*
X202430771Y-192872557D01*
X202430771Y-192872557D02*
X202287914Y-192801128D01*
X202287914Y-192801128D02*
X202002200Y-192801128D01*
X202002200Y-192801128D02*
X201859342Y-192872557D01*
X202502200Y-193729700D02*
X202359342Y-193801128D01*
X202359342Y-193801128D02*
X202002200Y-193801128D01*
X202002200Y-193801128D02*
X201859342Y-193729700D01*
X201859342Y-193729700D02*
X201787914Y-193586842D01*
X201787914Y-193586842D02*
X201787914Y-193443985D01*
X201787914Y-193443985D02*
X201859342Y-193301128D01*
X201859342Y-193301128D02*
X202002200Y-193229700D01*
X202002200Y-193229700D02*
X202359342Y-193229700D01*
X202359342Y-193229700D02*
X202502200Y-193158271D01*
X203002200Y-192801128D02*
X203573628Y-192801128D01*
X203216485Y-192301128D02*
X203216485Y-193586842D01*
X203216485Y-193586842D02*
X203287914Y-193729700D01*
X203287914Y-193729700D02*
X203430771Y-193801128D01*
X203430771Y-193801128D02*
X203573628Y-193801128D01*
X204645057Y-193729700D02*
X204502200Y-193801128D01*
X204502200Y-193801128D02*
X204216486Y-193801128D01*
X204216486Y-193801128D02*
X204073628Y-193729700D01*
X204073628Y-193729700D02*
X204002200Y-193586842D01*
X204002200Y-193586842D02*
X204002200Y-193015414D01*
X204002200Y-193015414D02*
X204073628Y-192872557D01*
X204073628Y-192872557D02*
X204216486Y-192801128D01*
X204216486Y-192801128D02*
X204502200Y-192801128D01*
X204502200Y-192801128D02*
X204645057Y-192872557D01*
X204645057Y-192872557D02*
X204716486Y-193015414D01*
X204716486Y-193015414D02*
X204716486Y-193158271D01*
X204716486Y-193158271D02*
X204002200Y-193301128D01*
X205359342Y-193658271D02*
X205430771Y-193729700D01*
X205430771Y-193729700D02*
X205359342Y-193801128D01*
X205359342Y-193801128D02*
X205287914Y-193729700D01*
X205287914Y-193729700D02*
X205359342Y-193658271D01*
X205359342Y-193658271D02*
X205359342Y-193801128D01*
X205359342Y-192872557D02*
X205430771Y-192943985D01*
X205430771Y-192943985D02*
X205359342Y-193015414D01*
X205359342Y-193015414D02*
X205287914Y-192943985D01*
X205287914Y-192943985D02*
X205359342Y-192872557D01*
X205359342Y-192872557D02*
X205359342Y-193015414D01*
D10*
D11*
X177002200Y-194507200D02*
X285002200Y-194507200D01*
D10*
D11*
X178359342Y-196601128D02*
X178359342Y-195101128D01*
X179216485Y-196601128D02*
X178573628Y-195743985D01*
X179216485Y-195101128D02*
X178359342Y-195958271D01*
X179859342Y-196601128D02*
X179859342Y-195601128D01*
X179859342Y-195101128D02*
X179787914Y-195172557D01*
X179787914Y-195172557D02*
X179859342Y-195243985D01*
X179859342Y-195243985D02*
X179930771Y-195172557D01*
X179930771Y-195172557D02*
X179859342Y-195101128D01*
X179859342Y-195101128D02*
X179859342Y-195243985D01*
X181430771Y-196458271D02*
X181359343Y-196529700D01*
X181359343Y-196529700D02*
X181145057Y-196601128D01*
X181145057Y-196601128D02*
X181002200Y-196601128D01*
X181002200Y-196601128D02*
X180787914Y-196529700D01*
X180787914Y-196529700D02*
X180645057Y-196386842D01*
X180645057Y-196386842D02*
X180573628Y-196243985D01*
X180573628Y-196243985D02*
X180502200Y-195958271D01*
X180502200Y-195958271D02*
X180502200Y-195743985D01*
X180502200Y-195743985D02*
X180573628Y-195458271D01*
X180573628Y-195458271D02*
X180645057Y-195315414D01*
X180645057Y-195315414D02*
X180787914Y-195172557D01*
X180787914Y-195172557D02*
X181002200Y-195101128D01*
X181002200Y-195101128D02*
X181145057Y-195101128D01*
X181145057Y-195101128D02*
X181359343Y-195172557D01*
X181359343Y-195172557D02*
X181430771Y-195243985D01*
X182716486Y-196601128D02*
X182716486Y-195815414D01*
X182716486Y-195815414D02*
X182645057Y-195672557D01*
X182645057Y-195672557D02*
X182502200Y-195601128D01*
X182502200Y-195601128D02*
X182216486Y-195601128D01*
X182216486Y-195601128D02*
X182073628Y-195672557D01*
X182716486Y-196529700D02*
X182573628Y-196601128D01*
X182573628Y-196601128D02*
X182216486Y-196601128D01*
X182216486Y-196601128D02*
X182073628Y-196529700D01*
X182073628Y-196529700D02*
X182002200Y-196386842D01*
X182002200Y-196386842D02*
X182002200Y-196243985D01*
X182002200Y-196243985D02*
X182073628Y-196101128D01*
X182073628Y-196101128D02*
X182216486Y-196029700D01*
X182216486Y-196029700D02*
X182573628Y-196029700D01*
X182573628Y-196029700D02*
X182716486Y-195958271D01*
X184073629Y-196601128D02*
X184073629Y-195101128D01*
X184073629Y-196529700D02*
X183930771Y-196601128D01*
X183930771Y-196601128D02*
X183645057Y-196601128D01*
X183645057Y-196601128D02*
X183502200Y-196529700D01*
X183502200Y-196529700D02*
X183430771Y-196458271D01*
X183430771Y-196458271D02*
X183359343Y-196315414D01*
X183359343Y-196315414D02*
X183359343Y-195886842D01*
X183359343Y-195886842D02*
X183430771Y-195743985D01*
X183430771Y-195743985D02*
X183502200Y-195672557D01*
X183502200Y-195672557D02*
X183645057Y-195601128D01*
X183645057Y-195601128D02*
X183930771Y-195601128D01*
X183930771Y-195601128D02*
X184073629Y-195672557D01*
X185930771Y-195815414D02*
X186430771Y-195815414D01*
X186645057Y-196601128D02*
X185930771Y-196601128D01*
X185930771Y-196601128D02*
X185930771Y-195101128D01*
X185930771Y-195101128D02*
X186645057Y-195101128D01*
X187287914Y-196458271D02*
X187359343Y-196529700D01*
X187359343Y-196529700D02*
X187287914Y-196601128D01*
X187287914Y-196601128D02*
X187216486Y-196529700D01*
X187216486Y-196529700D02*
X187287914Y-196458271D01*
X187287914Y-196458271D02*
X187287914Y-196601128D01*
X188002200Y-196601128D02*
X188002200Y-195101128D01*
X188002200Y-195101128D02*
X188359343Y-195101128D01*
X188359343Y-195101128D02*
X188573629Y-195172557D01*
X188573629Y-195172557D02*
X188716486Y-195315414D01*
X188716486Y-195315414D02*
X188787915Y-195458271D01*
X188787915Y-195458271D02*
X188859343Y-195743985D01*
X188859343Y-195743985D02*
X188859343Y-195958271D01*
X188859343Y-195958271D02*
X188787915Y-196243985D01*
X188787915Y-196243985D02*
X188716486Y-196386842D01*
X188716486Y-196386842D02*
X188573629Y-196529700D01*
X188573629Y-196529700D02*
X188359343Y-196601128D01*
X188359343Y-196601128D02*
X188002200Y-196601128D01*
X189502200Y-196458271D02*
X189573629Y-196529700D01*
X189573629Y-196529700D02*
X189502200Y-196601128D01*
X189502200Y-196601128D02*
X189430772Y-196529700D01*
X189430772Y-196529700D02*
X189502200Y-196458271D01*
X189502200Y-196458271D02*
X189502200Y-196601128D01*
X190145058Y-196172557D02*
X190859344Y-196172557D01*
X190002201Y-196601128D02*
X190502201Y-195101128D01*
X190502201Y-195101128D02*
X191002201Y-196601128D01*
X191502200Y-196458271D02*
X191573629Y-196529700D01*
X191573629Y-196529700D02*
X191502200Y-196601128D01*
X191502200Y-196601128D02*
X191430772Y-196529700D01*
X191430772Y-196529700D02*
X191502200Y-196458271D01*
X191502200Y-196458271D02*
X191502200Y-196601128D01*
X194502200Y-196601128D02*
X194502200Y-195101128D01*
X194645058Y-196029700D02*
X195073629Y-196601128D01*
X195073629Y-195601128D02*
X194502200Y-196172557D01*
X195716486Y-196601128D02*
X195716486Y-195601128D01*
X195716486Y-195101128D02*
X195645058Y-195172557D01*
X195645058Y-195172557D02*
X195716486Y-195243985D01*
X195716486Y-195243985D02*
X195787915Y-195172557D01*
X195787915Y-195172557D02*
X195716486Y-195101128D01*
X195716486Y-195101128D02*
X195716486Y-195243985D01*
X197073630Y-196529700D02*
X196930772Y-196601128D01*
X196930772Y-196601128D02*
X196645058Y-196601128D01*
X196645058Y-196601128D02*
X196502201Y-196529700D01*
X196502201Y-196529700D02*
X196430772Y-196458271D01*
X196430772Y-196458271D02*
X196359344Y-196315414D01*
X196359344Y-196315414D02*
X196359344Y-195886842D01*
X196359344Y-195886842D02*
X196430772Y-195743985D01*
X196430772Y-195743985D02*
X196502201Y-195672557D01*
X196502201Y-195672557D02*
X196645058Y-195601128D01*
X196645058Y-195601128D02*
X196930772Y-195601128D01*
X196930772Y-195601128D02*
X197073630Y-195672557D01*
X198359344Y-196601128D02*
X198359344Y-195815414D01*
X198359344Y-195815414D02*
X198287915Y-195672557D01*
X198287915Y-195672557D02*
X198145058Y-195601128D01*
X198145058Y-195601128D02*
X197859344Y-195601128D01*
X197859344Y-195601128D02*
X197716486Y-195672557D01*
X198359344Y-196529700D02*
X198216486Y-196601128D01*
X198216486Y-196601128D02*
X197859344Y-196601128D01*
X197859344Y-196601128D02*
X197716486Y-196529700D01*
X197716486Y-196529700D02*
X197645058Y-196386842D01*
X197645058Y-196386842D02*
X197645058Y-196243985D01*
X197645058Y-196243985D02*
X197716486Y-196101128D01*
X197716486Y-196101128D02*
X197859344Y-196029700D01*
X197859344Y-196029700D02*
X198216486Y-196029700D01*
X198216486Y-196029700D02*
X198359344Y-195958271D01*
X199716487Y-196601128D02*
X199716487Y-195101128D01*
X199716487Y-196529700D02*
X199573629Y-196601128D01*
X199573629Y-196601128D02*
X199287915Y-196601128D01*
X199287915Y-196601128D02*
X199145058Y-196529700D01*
X199145058Y-196529700D02*
X199073629Y-196458271D01*
X199073629Y-196458271D02*
X199002201Y-196315414D01*
X199002201Y-196315414D02*
X199002201Y-195886842D01*
X199002201Y-195886842D02*
X199073629Y-195743985D01*
X199073629Y-195743985D02*
X199145058Y-195672557D01*
X199145058Y-195672557D02*
X199287915Y-195601128D01*
X199287915Y-195601128D02*
X199573629Y-195601128D01*
X199573629Y-195601128D02*
X199716487Y-195672557D01*
X201430772Y-195101128D02*
X202430772Y-195101128D01*
X202430772Y-195101128D02*
X201787915Y-196601128D01*
X203002200Y-196458271D02*
X203073629Y-196529700D01*
X203073629Y-196529700D02*
X203002200Y-196601128D01*
X203002200Y-196601128D02*
X202930772Y-196529700D01*
X202930772Y-196529700D02*
X203002200Y-196458271D01*
X203002200Y-196458271D02*
X203002200Y-196601128D01*
X204002201Y-195101128D02*
X204145058Y-195101128D01*
X204145058Y-195101128D02*
X204287915Y-195172557D01*
X204287915Y-195172557D02*
X204359344Y-195243985D01*
X204359344Y-195243985D02*
X204430772Y-195386842D01*
X204430772Y-195386842D02*
X204502201Y-195672557D01*
X204502201Y-195672557D02*
X204502201Y-196029700D01*
X204502201Y-196029700D02*
X204430772Y-196315414D01*
X204430772Y-196315414D02*
X204359344Y-196458271D01*
X204359344Y-196458271D02*
X204287915Y-196529700D01*
X204287915Y-196529700D02*
X204145058Y-196601128D01*
X204145058Y-196601128D02*
X204002201Y-196601128D01*
X204002201Y-196601128D02*
X203859344Y-196529700D01*
X203859344Y-196529700D02*
X203787915Y-196458271D01*
X203787915Y-196458271D02*
X203716486Y-196315414D01*
X203716486Y-196315414D02*
X203645058Y-196029700D01*
X203645058Y-196029700D02*
X203645058Y-195672557D01*
X203645058Y-195672557D02*
X203716486Y-195386842D01*
X203716486Y-195386842D02*
X203787915Y-195243985D01*
X203787915Y-195243985D02*
X203859344Y-195172557D01*
X203859344Y-195172557D02*
X204002201Y-195101128D01*
X205145057Y-196458271D02*
X205216486Y-196529700D01*
X205216486Y-196529700D02*
X205145057Y-196601128D01*
X205145057Y-196601128D02*
X205073629Y-196529700D01*
X205073629Y-196529700D02*
X205145057Y-196458271D01*
X205145057Y-196458271D02*
X205145057Y-196601128D01*
X206645058Y-196601128D02*
X205787915Y-196601128D01*
X206216486Y-196601128D02*
X206216486Y-195101128D01*
X206216486Y-195101128D02*
X206073629Y-195315414D01*
X206073629Y-195315414D02*
X205930772Y-195458271D01*
X205930772Y-195458271D02*
X205787915Y-195529700D01*
X207287914Y-196029700D02*
X208430772Y-196029700D01*
X209430772Y-195101128D02*
X209573629Y-195101128D01*
X209573629Y-195101128D02*
X209716486Y-195172557D01*
X209716486Y-195172557D02*
X209787915Y-195243985D01*
X209787915Y-195243985D02*
X209859343Y-195386842D01*
X209859343Y-195386842D02*
X209930772Y-195672557D01*
X209930772Y-195672557D02*
X209930772Y-196029700D01*
X209930772Y-196029700D02*
X209859343Y-196315414D01*
X209859343Y-196315414D02*
X209787915Y-196458271D01*
X209787915Y-196458271D02*
X209716486Y-196529700D01*
X209716486Y-196529700D02*
X209573629Y-196601128D01*
X209573629Y-196601128D02*
X209430772Y-196601128D01*
X209430772Y-196601128D02*
X209287915Y-196529700D01*
X209287915Y-196529700D02*
X209216486Y-196458271D01*
X209216486Y-196458271D02*
X209145057Y-196315414D01*
X209145057Y-196315414D02*
X209073629Y-196029700D01*
X209073629Y-196029700D02*
X209073629Y-195672557D01*
X209073629Y-195672557D02*
X209145057Y-195386842D01*
X209145057Y-195386842D02*
X209216486Y-195243985D01*
X209216486Y-195243985D02*
X209287915Y-195172557D01*
X209287915Y-195172557D02*
X209430772Y-195101128D01*
D10*
D11*
X177002200Y-191507200D02*
X285002200Y-191507200D01*
D10*
D12*
X264216485Y-193801128D02*
X263716485Y-193086842D01*
X263359342Y-193801128D02*
X263359342Y-192301128D01*
X263359342Y-192301128D02*
X263930771Y-192301128D01*
X263930771Y-192301128D02*
X264073628Y-192372557D01*
X264073628Y-192372557D02*
X264145057Y-192443985D01*
X264145057Y-192443985D02*
X264216485Y-192586842D01*
X264216485Y-192586842D02*
X264216485Y-192801128D01*
X264216485Y-192801128D02*
X264145057Y-192943985D01*
X264145057Y-192943985D02*
X264073628Y-193015414D01*
X264073628Y-193015414D02*
X263930771Y-193086842D01*
X263930771Y-193086842D02*
X263359342Y-193086842D01*
X265430771Y-193729700D02*
X265287914Y-193801128D01*
X265287914Y-193801128D02*
X265002200Y-193801128D01*
X265002200Y-193801128D02*
X264859342Y-193729700D01*
X264859342Y-193729700D02*
X264787914Y-193586842D01*
X264787914Y-193586842D02*
X264787914Y-193015414D01*
X264787914Y-193015414D02*
X264859342Y-192872557D01*
X264859342Y-192872557D02*
X265002200Y-192801128D01*
X265002200Y-192801128D02*
X265287914Y-192801128D01*
X265287914Y-192801128D02*
X265430771Y-192872557D01*
X265430771Y-192872557D02*
X265502200Y-193015414D01*
X265502200Y-193015414D02*
X265502200Y-193158271D01*
X265502200Y-193158271D02*
X264787914Y-193301128D01*
X266002199Y-192801128D02*
X266359342Y-193801128D01*
X266359342Y-193801128D02*
X266716485Y-192801128D01*
X267287913Y-193658271D02*
X267359342Y-193729700D01*
X267359342Y-193729700D02*
X267287913Y-193801128D01*
X267287913Y-193801128D02*
X267216485Y-193729700D01*
X267216485Y-193729700D02*
X267287913Y-193658271D01*
X267287913Y-193658271D02*
X267287913Y-193801128D01*
X267287913Y-192872557D02*
X267359342Y-192943985D01*
X267359342Y-192943985D02*
X267287913Y-193015414D01*
X267287913Y-193015414D02*
X267216485Y-192943985D01*
X267216485Y-192943985D02*
X267287913Y-192872557D01*
X267287913Y-192872557D02*
X267287913Y-193015414D01*
D10*
D11*
X178287914Y-193729700D02*
X178502200Y-193801128D01*
X178502200Y-193801128D02*
X178859342Y-193801128D01*
X178859342Y-193801128D02*
X179002200Y-193729700D01*
X179002200Y-193729700D02*
X179073628Y-193658271D01*
X179073628Y-193658271D02*
X179145057Y-193515414D01*
X179145057Y-193515414D02*
X179145057Y-193372557D01*
X179145057Y-193372557D02*
X179073628Y-193229700D01*
X179073628Y-193229700D02*
X179002200Y-193158271D01*
X179002200Y-193158271D02*
X178859342Y-193086842D01*
X178859342Y-193086842D02*
X178573628Y-193015414D01*
X178573628Y-193015414D02*
X178430771Y-192943985D01*
X178430771Y-192943985D02*
X178359342Y-192872557D01*
X178359342Y-192872557D02*
X178287914Y-192729700D01*
X178287914Y-192729700D02*
X178287914Y-192586842D01*
X178287914Y-192586842D02*
X178359342Y-192443985D01*
X178359342Y-192443985D02*
X178430771Y-192372557D01*
X178430771Y-192372557D02*
X178573628Y-192301128D01*
X178573628Y-192301128D02*
X178930771Y-192301128D01*
X178930771Y-192301128D02*
X179145057Y-192372557D01*
X179787913Y-193801128D02*
X179787913Y-192801128D01*
X179787913Y-192301128D02*
X179716485Y-192372557D01*
X179716485Y-192372557D02*
X179787913Y-192443985D01*
X179787913Y-192443985D02*
X179859342Y-192372557D01*
X179859342Y-192372557D02*
X179787913Y-192301128D01*
X179787913Y-192301128D02*
X179787913Y-192443985D01*
X180359342Y-192801128D02*
X181145057Y-192801128D01*
X181145057Y-192801128D02*
X180359342Y-193801128D01*
X180359342Y-193801128D02*
X181145057Y-193801128D01*
X182287914Y-193729700D02*
X182145057Y-193801128D01*
X182145057Y-193801128D02*
X181859343Y-193801128D01*
X181859343Y-193801128D02*
X181716485Y-193729700D01*
X181716485Y-193729700D02*
X181645057Y-193586842D01*
X181645057Y-193586842D02*
X181645057Y-193015414D01*
X181645057Y-193015414D02*
X181716485Y-192872557D01*
X181716485Y-192872557D02*
X181859343Y-192801128D01*
X181859343Y-192801128D02*
X182145057Y-192801128D01*
X182145057Y-192801128D02*
X182287914Y-192872557D01*
X182287914Y-192872557D02*
X182359343Y-193015414D01*
X182359343Y-193015414D02*
X182359343Y-193158271D01*
X182359343Y-193158271D02*
X181645057Y-193301128D01*
X183002199Y-193658271D02*
X183073628Y-193729700D01*
X183073628Y-193729700D02*
X183002199Y-193801128D01*
X183002199Y-193801128D02*
X182930771Y-193729700D01*
X182930771Y-193729700D02*
X183002199Y-193658271D01*
X183002199Y-193658271D02*
X183002199Y-193801128D01*
X183002199Y-192872557D02*
X183073628Y-192943985D01*
X183073628Y-192943985D02*
X183002199Y-193015414D01*
X183002199Y-193015414D02*
X182930771Y-192943985D01*
X182930771Y-192943985D02*
X183002199Y-192872557D01*
X183002199Y-192872557D02*
X183002199Y-193015414D01*
X184787914Y-193372557D02*
X185502200Y-193372557D01*
X184645057Y-193801128D02*
X185145057Y-192301128D01*
X185145057Y-192301128D02*
X185645057Y-193801128D01*
X186787914Y-192801128D02*
X186787914Y-193801128D01*
X186430771Y-192229700D02*
X186073628Y-193301128D01*
X186073628Y-193301128D02*
X187002199Y-193301128D01*
D10*
D11*
X263359342Y-196601128D02*
X263359342Y-195101128D01*
X264716486Y-196601128D02*
X264716486Y-195101128D01*
X264716486Y-196529700D02*
X264573628Y-196601128D01*
X264573628Y-196601128D02*
X264287914Y-196601128D01*
X264287914Y-196601128D02*
X264145057Y-196529700D01*
X264145057Y-196529700D02*
X264073628Y-196458271D01*
X264073628Y-196458271D02*
X264002200Y-196315414D01*
X264002200Y-196315414D02*
X264002200Y-195886842D01*
X264002200Y-195886842D02*
X264073628Y-195743985D01*
X264073628Y-195743985D02*
X264145057Y-195672557D01*
X264145057Y-195672557D02*
X264287914Y-195601128D01*
X264287914Y-195601128D02*
X264573628Y-195601128D01*
X264573628Y-195601128D02*
X264716486Y-195672557D01*
X265430771Y-196458271D02*
X265502200Y-196529700D01*
X265502200Y-196529700D02*
X265430771Y-196601128D01*
X265430771Y-196601128D02*
X265359343Y-196529700D01*
X265359343Y-196529700D02*
X265430771Y-196458271D01*
X265430771Y-196458271D02*
X265430771Y-196601128D01*
X265430771Y-195672557D02*
X265502200Y-195743985D01*
X265502200Y-195743985D02*
X265430771Y-195815414D01*
X265430771Y-195815414D02*
X265359343Y-195743985D01*
X265359343Y-195743985D02*
X265430771Y-195672557D01*
X265430771Y-195672557D02*
X265430771Y-195815414D01*
X268073629Y-196601128D02*
X267216486Y-196601128D01*
X267645057Y-196601128D02*
X267645057Y-195101128D01*
X267645057Y-195101128D02*
X267502200Y-195315414D01*
X267502200Y-195315414D02*
X267359343Y-195458271D01*
X267359343Y-195458271D02*
X267216486Y-195529700D01*
X269787914Y-195029700D02*
X268502200Y-196958271D01*
X271073629Y-196601128D02*
X270216486Y-196601128D01*
X270645057Y-196601128D02*
X270645057Y-195101128D01*
X270645057Y-195101128D02*
X270502200Y-195315414D01*
X270502200Y-195315414D02*
X270359343Y-195458271D01*
X270359343Y-195458271D02*
X270216486Y-195529700D01*
D10*
D11*
X177002200Y-187507200D02*
X285002200Y-187507200D01*
D10*
D13*
X178430771Y-188232438D02*
X179573628Y-188232438D01*
X178752200Y-190232438D02*
X179002200Y-188232438D01*
X179978390Y-190232438D02*
X180145057Y-188899104D01*
X180228390Y-188232438D02*
X180121247Y-188327676D01*
X180121247Y-188327676D02*
X180204581Y-188422914D01*
X180204581Y-188422914D02*
X180311724Y-188327676D01*
X180311724Y-188327676D02*
X180228390Y-188232438D01*
X180228390Y-188232438D02*
X180204581Y-188422914D01*
X180799819Y-188899104D02*
X181561723Y-188899104D01*
X181168866Y-188232438D02*
X180954581Y-189946723D01*
X180954581Y-189946723D02*
X181026009Y-190137200D01*
X181026009Y-190137200D02*
X181204581Y-190232438D01*
X181204581Y-190232438D02*
X181395057Y-190232438D01*
X182335533Y-190232438D02*
X182156961Y-190137200D01*
X182156961Y-190137200D02*
X182085533Y-189946723D01*
X182085533Y-189946723D02*
X182299818Y-188232438D01*
X183859342Y-190137200D02*
X183656961Y-190232438D01*
X183656961Y-190232438D02*
X183276008Y-190232438D01*
X183276008Y-190232438D02*
X183097437Y-190137200D01*
X183097437Y-190137200D02*
X183026008Y-189946723D01*
X183026008Y-189946723D02*
X183121247Y-189184819D01*
X183121247Y-189184819D02*
X183240294Y-188994342D01*
X183240294Y-188994342D02*
X183442675Y-188899104D01*
X183442675Y-188899104D02*
X183823627Y-188899104D01*
X183823627Y-188899104D02*
X184002199Y-188994342D01*
X184002199Y-188994342D02*
X184073627Y-189184819D01*
X184073627Y-189184819D02*
X184049818Y-189375295D01*
X184049818Y-189375295D02*
X183073627Y-189565771D01*
X184811723Y-190041961D02*
X184895056Y-190137200D01*
X184895056Y-190137200D02*
X184787913Y-190232438D01*
X184787913Y-190232438D02*
X184704580Y-190137200D01*
X184704580Y-190137200D02*
X184811723Y-190041961D01*
X184811723Y-190041961D02*
X184787913Y-190232438D01*
X184942675Y-188994342D02*
X185026008Y-189089580D01*
X185026008Y-189089580D02*
X184918866Y-189184819D01*
X184918866Y-189184819D02*
X184835532Y-189089580D01*
X184835532Y-189089580D02*
X184942675Y-188994342D01*
X184942675Y-188994342D02*
X184918866Y-189184819D01*
D10*
D11*
X178859342Y-185615414D02*
X178359342Y-185615414D01*
X178359342Y-186401128D02*
X178359342Y-184901128D01*
X178359342Y-184901128D02*
X179073628Y-184901128D01*
X179645056Y-186401128D02*
X179645056Y-185401128D01*
X179645056Y-184901128D02*
X179573628Y-184972557D01*
X179573628Y-184972557D02*
X179645056Y-185043985D01*
X179645056Y-185043985D02*
X179716485Y-184972557D01*
X179716485Y-184972557D02*
X179645056Y-184901128D01*
X179645056Y-184901128D02*
X179645056Y-185043985D01*
X180573628Y-186401128D02*
X180430771Y-186329700D01*
X180430771Y-186329700D02*
X180359342Y-186186842D01*
X180359342Y-186186842D02*
X180359342Y-184901128D01*
X181716485Y-186329700D02*
X181573628Y-186401128D01*
X181573628Y-186401128D02*
X181287914Y-186401128D01*
X181287914Y-186401128D02*
X181145056Y-186329700D01*
X181145056Y-186329700D02*
X181073628Y-186186842D01*
X181073628Y-186186842D02*
X181073628Y-185615414D01*
X181073628Y-185615414D02*
X181145056Y-185472557D01*
X181145056Y-185472557D02*
X181287914Y-185401128D01*
X181287914Y-185401128D02*
X181573628Y-185401128D01*
X181573628Y-185401128D02*
X181716485Y-185472557D01*
X181716485Y-185472557D02*
X181787914Y-185615414D01*
X181787914Y-185615414D02*
X181787914Y-185758271D01*
X181787914Y-185758271D02*
X181073628Y-185901128D01*
X182430770Y-186258271D02*
X182502199Y-186329700D01*
X182502199Y-186329700D02*
X182430770Y-186401128D01*
X182430770Y-186401128D02*
X182359342Y-186329700D01*
X182359342Y-186329700D02*
X182430770Y-186258271D01*
X182430770Y-186258271D02*
X182430770Y-186401128D01*
X182430770Y-185472557D02*
X182502199Y-185543985D01*
X182502199Y-185543985D02*
X182430770Y-185615414D01*
X182430770Y-185615414D02*
X182359342Y-185543985D01*
X182359342Y-185543985D02*
X182430770Y-185472557D01*
X182430770Y-185472557D02*
X182430770Y-185615414D01*
X185073628Y-184972557D02*
X184930771Y-184901128D01*
X184930771Y-184901128D02*
X184716485Y-184901128D01*
X184716485Y-184901128D02*
X184502199Y-184972557D01*
X184502199Y-184972557D02*
X184359342Y-185115414D01*
X184359342Y-185115414D02*
X184287913Y-185258271D01*
X184287913Y-185258271D02*
X184216485Y-185543985D01*
X184216485Y-185543985D02*
X184216485Y-185758271D01*
X184216485Y-185758271D02*
X184287913Y-186043985D01*
X184287913Y-186043985D02*
X184359342Y-186186842D01*
X184359342Y-186186842D02*
X184502199Y-186329700D01*
X184502199Y-186329700D02*
X184716485Y-186401128D01*
X184716485Y-186401128D02*
X184859342Y-186401128D01*
X184859342Y-186401128D02*
X185073628Y-186329700D01*
X185073628Y-186329700D02*
X185145056Y-186258271D01*
X185145056Y-186258271D02*
X185145056Y-185758271D01*
X185145056Y-185758271D02*
X184859342Y-185758271D01*
X186359342Y-186329700D02*
X186216485Y-186401128D01*
X186216485Y-186401128D02*
X185930771Y-186401128D01*
X185930771Y-186401128D02*
X185787913Y-186329700D01*
X185787913Y-186329700D02*
X185716485Y-186186842D01*
X185716485Y-186186842D02*
X185716485Y-185615414D01*
X185716485Y-185615414D02*
X185787913Y-185472557D01*
X185787913Y-185472557D02*
X185930771Y-185401128D01*
X185930771Y-185401128D02*
X186216485Y-185401128D01*
X186216485Y-185401128D02*
X186359342Y-185472557D01*
X186359342Y-185472557D02*
X186430771Y-185615414D01*
X186430771Y-185615414D02*
X186430771Y-185758271D01*
X186430771Y-185758271D02*
X185716485Y-185901128D01*
X187716485Y-186329700D02*
X187573627Y-186401128D01*
X187573627Y-186401128D02*
X187287913Y-186401128D01*
X187287913Y-186401128D02*
X187145056Y-186329700D01*
X187145056Y-186329700D02*
X187073627Y-186258271D01*
X187073627Y-186258271D02*
X187002199Y-186115414D01*
X187002199Y-186115414D02*
X187002199Y-185686842D01*
X187002199Y-185686842D02*
X187073627Y-185543985D01*
X187073627Y-185543985D02*
X187145056Y-185472557D01*
X187145056Y-185472557D02*
X187287913Y-185401128D01*
X187287913Y-185401128D02*
X187573627Y-185401128D01*
X187573627Y-185401128D02*
X187716485Y-185472557D01*
X188359341Y-186401128D02*
X188359341Y-184901128D01*
X188502199Y-185829700D02*
X188930770Y-186401128D01*
X188930770Y-185401128D02*
X188359341Y-185972557D01*
X189787913Y-186401128D02*
X189645056Y-186329700D01*
X189645056Y-186329700D02*
X189573627Y-186258271D01*
X189573627Y-186258271D02*
X189502199Y-186115414D01*
X189502199Y-186115414D02*
X189502199Y-185686842D01*
X189502199Y-185686842D02*
X189573627Y-185543985D01*
X189573627Y-185543985D02*
X189645056Y-185472557D01*
X189645056Y-185472557D02*
X189787913Y-185401128D01*
X189787913Y-185401128D02*
X190002199Y-185401128D01*
X190002199Y-185401128D02*
X190145056Y-185472557D01*
X190145056Y-185472557D02*
X190216485Y-185543985D01*
X190216485Y-185543985D02*
X190287913Y-185686842D01*
X190287913Y-185686842D02*
X190287913Y-186115414D01*
X190287913Y-186115414D02*
X190216485Y-186258271D01*
X190216485Y-186258271D02*
X190145056Y-186329700D01*
X190145056Y-186329700D02*
X190002199Y-186401128D01*
X190002199Y-186401128D02*
X189787913Y-186401128D01*
X190573628Y-186543985D02*
X191716485Y-186543985D01*
X192002199Y-186329700D02*
X192216485Y-186401128D01*
X192216485Y-186401128D02*
X192573627Y-186401128D01*
X192573627Y-186401128D02*
X192716485Y-186329700D01*
X192716485Y-186329700D02*
X192787913Y-186258271D01*
X192787913Y-186258271D02*
X192859342Y-186115414D01*
X192859342Y-186115414D02*
X192859342Y-185972557D01*
X192859342Y-185972557D02*
X192787913Y-185829700D01*
X192787913Y-185829700D02*
X192716485Y-185758271D01*
X192716485Y-185758271D02*
X192573627Y-185686842D01*
X192573627Y-185686842D02*
X192287913Y-185615414D01*
X192287913Y-185615414D02*
X192145056Y-185543985D01*
X192145056Y-185543985D02*
X192073627Y-185472557D01*
X192073627Y-185472557D02*
X192002199Y-185329700D01*
X192002199Y-185329700D02*
X192002199Y-185186842D01*
X192002199Y-185186842D02*
X192073627Y-185043985D01*
X192073627Y-185043985D02*
X192145056Y-184972557D01*
X192145056Y-184972557D02*
X192287913Y-184901128D01*
X192287913Y-184901128D02*
X192645056Y-184901128D01*
X192645056Y-184901128D02*
X192859342Y-184972557D01*
X193502198Y-185401128D02*
X193502198Y-186901128D01*
X193502198Y-185472557D02*
X193645056Y-185401128D01*
X193645056Y-185401128D02*
X193930770Y-185401128D01*
X193930770Y-185401128D02*
X194073627Y-185472557D01*
X194073627Y-185472557D02*
X194145056Y-185543985D01*
X194145056Y-185543985D02*
X194216484Y-185686842D01*
X194216484Y-185686842D02*
X194216484Y-186115414D01*
X194216484Y-186115414D02*
X194145056Y-186258271D01*
X194145056Y-186258271D02*
X194073627Y-186329700D01*
X194073627Y-186329700D02*
X193930770Y-186401128D01*
X193930770Y-186401128D02*
X193645056Y-186401128D01*
X193645056Y-186401128D02*
X193502198Y-186329700D01*
X195073627Y-186401128D02*
X194930770Y-186329700D01*
X194930770Y-186329700D02*
X194859341Y-186186842D01*
X194859341Y-186186842D02*
X194859341Y-184901128D01*
X195645055Y-186401128D02*
X195645055Y-185401128D01*
X195645055Y-184901128D02*
X195573627Y-184972557D01*
X195573627Y-184972557D02*
X195645055Y-185043985D01*
X195645055Y-185043985D02*
X195716484Y-184972557D01*
X195716484Y-184972557D02*
X195645055Y-184901128D01*
X195645055Y-184901128D02*
X195645055Y-185043985D01*
X196145056Y-185401128D02*
X196716484Y-185401128D01*
X196359341Y-184901128D02*
X196359341Y-186186842D01*
X196359341Y-186186842D02*
X196430770Y-186329700D01*
X196430770Y-186329700D02*
X196573627Y-186401128D01*
X196573627Y-186401128D02*
X196716484Y-186401128D01*
X197216484Y-186258271D02*
X197287913Y-186329700D01*
X197287913Y-186329700D02*
X197216484Y-186401128D01*
X197216484Y-186401128D02*
X197145056Y-186329700D01*
X197145056Y-186329700D02*
X197216484Y-186258271D01*
X197216484Y-186258271D02*
X197216484Y-186401128D01*
X197930770Y-186401128D02*
X197930770Y-184901128D01*
X198073628Y-185829700D02*
X198502199Y-186401128D01*
X198502199Y-185401128D02*
X197930770Y-185972557D01*
X199145056Y-186401128D02*
X199145056Y-185401128D01*
X199145056Y-184901128D02*
X199073628Y-184972557D01*
X199073628Y-184972557D02*
X199145056Y-185043985D01*
X199145056Y-185043985D02*
X199216485Y-184972557D01*
X199216485Y-184972557D02*
X199145056Y-184901128D01*
X199145056Y-184901128D02*
X199145056Y-185043985D01*
X200502200Y-186329700D02*
X200359342Y-186401128D01*
X200359342Y-186401128D02*
X200073628Y-186401128D01*
X200073628Y-186401128D02*
X199930771Y-186329700D01*
X199930771Y-186329700D02*
X199859342Y-186258271D01*
X199859342Y-186258271D02*
X199787914Y-186115414D01*
X199787914Y-186115414D02*
X199787914Y-185686842D01*
X199787914Y-185686842D02*
X199859342Y-185543985D01*
X199859342Y-185543985D02*
X199930771Y-185472557D01*
X199930771Y-185472557D02*
X200073628Y-185401128D01*
X200073628Y-185401128D02*
X200359342Y-185401128D01*
X200359342Y-185401128D02*
X200502200Y-185472557D01*
X201787914Y-186401128D02*
X201787914Y-185615414D01*
X201787914Y-185615414D02*
X201716485Y-185472557D01*
X201716485Y-185472557D02*
X201573628Y-185401128D01*
X201573628Y-185401128D02*
X201287914Y-185401128D01*
X201287914Y-185401128D02*
X201145056Y-185472557D01*
X201787914Y-186329700D02*
X201645056Y-186401128D01*
X201645056Y-186401128D02*
X201287914Y-186401128D01*
X201287914Y-186401128D02*
X201145056Y-186329700D01*
X201145056Y-186329700D02*
X201073628Y-186186842D01*
X201073628Y-186186842D02*
X201073628Y-186043985D01*
X201073628Y-186043985D02*
X201145056Y-185901128D01*
X201145056Y-185901128D02*
X201287914Y-185829700D01*
X201287914Y-185829700D02*
X201645056Y-185829700D01*
X201645056Y-185829700D02*
X201787914Y-185758271D01*
X203145057Y-186401128D02*
X203145057Y-184901128D01*
X203145057Y-186329700D02*
X203002199Y-186401128D01*
X203002199Y-186401128D02*
X202716485Y-186401128D01*
X202716485Y-186401128D02*
X202573628Y-186329700D01*
X202573628Y-186329700D02*
X202502199Y-186258271D01*
X202502199Y-186258271D02*
X202430771Y-186115414D01*
X202430771Y-186115414D02*
X202430771Y-185686842D01*
X202430771Y-185686842D02*
X202502199Y-185543985D01*
X202502199Y-185543985D02*
X202573628Y-185472557D01*
X202573628Y-185472557D02*
X202716485Y-185401128D01*
X202716485Y-185401128D02*
X203002199Y-185401128D01*
X203002199Y-185401128D02*
X203145057Y-185472557D01*
X203502200Y-186543985D02*
X204645057Y-186543985D01*
X205002199Y-185401128D02*
X205002199Y-186901128D01*
X205002199Y-185472557D02*
X205145057Y-185401128D01*
X205145057Y-185401128D02*
X205430771Y-185401128D01*
X205430771Y-185401128D02*
X205573628Y-185472557D01*
X205573628Y-185472557D02*
X205645057Y-185543985D01*
X205645057Y-185543985D02*
X205716485Y-185686842D01*
X205716485Y-185686842D02*
X205716485Y-186115414D01*
X205716485Y-186115414D02*
X205645057Y-186258271D01*
X205645057Y-186258271D02*
X205573628Y-186329700D01*
X205573628Y-186329700D02*
X205430771Y-186401128D01*
X205430771Y-186401128D02*
X205145057Y-186401128D01*
X205145057Y-186401128D02*
X205002199Y-186329700D01*
X207002200Y-186329700D02*
X206859342Y-186401128D01*
X206859342Y-186401128D02*
X206573628Y-186401128D01*
X206573628Y-186401128D02*
X206430771Y-186329700D01*
X206430771Y-186329700D02*
X206359342Y-186258271D01*
X206359342Y-186258271D02*
X206287914Y-186115414D01*
X206287914Y-186115414D02*
X206287914Y-185686842D01*
X206287914Y-185686842D02*
X206359342Y-185543985D01*
X206359342Y-185543985D02*
X206430771Y-185472557D01*
X206430771Y-185472557D02*
X206573628Y-185401128D01*
X206573628Y-185401128D02*
X206859342Y-185401128D01*
X206859342Y-185401128D02*
X207002200Y-185472557D01*
X207645056Y-186401128D02*
X207645056Y-184901128D01*
X207645056Y-185472557D02*
X207787914Y-185401128D01*
X207787914Y-185401128D02*
X208073628Y-185401128D01*
X208073628Y-185401128D02*
X208216485Y-185472557D01*
X208216485Y-185472557D02*
X208287914Y-185543985D01*
X208287914Y-185543985D02*
X208359342Y-185686842D01*
X208359342Y-185686842D02*
X208359342Y-186115414D01*
X208359342Y-186115414D02*
X208287914Y-186258271D01*
X208287914Y-186258271D02*
X208216485Y-186329700D01*
X208216485Y-186329700D02*
X208073628Y-186401128D01*
X208073628Y-186401128D02*
X207787914Y-186401128D01*
X207787914Y-186401128D02*
X207645056Y-186329700D01*
D10*
D11*
X177002200Y-181507200D02*
X285002200Y-181507200D01*
D10*
D11*
X178287914Y-183629700D02*
X178502200Y-183701128D01*
X178502200Y-183701128D02*
X178859342Y-183701128D01*
X178859342Y-183701128D02*
X179002200Y-183629700D01*
X179002200Y-183629700D02*
X179073628Y-183558271D01*
X179073628Y-183558271D02*
X179145057Y-183415414D01*
X179145057Y-183415414D02*
X179145057Y-183272557D01*
X179145057Y-183272557D02*
X179073628Y-183129700D01*
X179073628Y-183129700D02*
X179002200Y-183058271D01*
X179002200Y-183058271D02*
X178859342Y-182986842D01*
X178859342Y-182986842D02*
X178573628Y-182915414D01*
X178573628Y-182915414D02*
X178430771Y-182843985D01*
X178430771Y-182843985D02*
X178359342Y-182772557D01*
X178359342Y-182772557D02*
X178287914Y-182629700D01*
X178287914Y-182629700D02*
X178287914Y-182486842D01*
X178287914Y-182486842D02*
X178359342Y-182343985D01*
X178359342Y-182343985D02*
X178430771Y-182272557D01*
X178430771Y-182272557D02*
X178573628Y-182201128D01*
X178573628Y-182201128D02*
X178930771Y-182201128D01*
X178930771Y-182201128D02*
X179145057Y-182272557D01*
X179787913Y-183701128D02*
X179787913Y-182201128D01*
X180430771Y-183701128D02*
X180430771Y-182915414D01*
X180430771Y-182915414D02*
X180359342Y-182772557D01*
X180359342Y-182772557D02*
X180216485Y-182701128D01*
X180216485Y-182701128D02*
X180002199Y-182701128D01*
X180002199Y-182701128D02*
X179859342Y-182772557D01*
X179859342Y-182772557D02*
X179787913Y-182843985D01*
X181716485Y-183629700D02*
X181573628Y-183701128D01*
X181573628Y-183701128D02*
X181287914Y-183701128D01*
X181287914Y-183701128D02*
X181145056Y-183629700D01*
X181145056Y-183629700D02*
X181073628Y-183486842D01*
X181073628Y-183486842D02*
X181073628Y-182915414D01*
X181073628Y-182915414D02*
X181145056Y-182772557D01*
X181145056Y-182772557D02*
X181287914Y-182701128D01*
X181287914Y-182701128D02*
X181573628Y-182701128D01*
X181573628Y-182701128D02*
X181716485Y-182772557D01*
X181716485Y-182772557D02*
X181787914Y-182915414D01*
X181787914Y-182915414D02*
X181787914Y-183058271D01*
X181787914Y-183058271D02*
X181073628Y-183201128D01*
X183002199Y-183629700D02*
X182859342Y-183701128D01*
X182859342Y-183701128D02*
X182573628Y-183701128D01*
X182573628Y-183701128D02*
X182430770Y-183629700D01*
X182430770Y-183629700D02*
X182359342Y-183486842D01*
X182359342Y-183486842D02*
X182359342Y-182915414D01*
X182359342Y-182915414D02*
X182430770Y-182772557D01*
X182430770Y-182772557D02*
X182573628Y-182701128D01*
X182573628Y-182701128D02*
X182859342Y-182701128D01*
X182859342Y-182701128D02*
X183002199Y-182772557D01*
X183002199Y-182772557D02*
X183073628Y-182915414D01*
X183073628Y-182915414D02*
X183073628Y-183058271D01*
X183073628Y-183058271D02*
X182359342Y-183201128D01*
X183502199Y-182701128D02*
X184073627Y-182701128D01*
X183716484Y-182201128D02*
X183716484Y-183486842D01*
X183716484Y-183486842D02*
X183787913Y-183629700D01*
X183787913Y-183629700D02*
X183930770Y-183701128D01*
X183930770Y-183701128D02*
X184073627Y-183701128D01*
X184573627Y-183558271D02*
X184645056Y-183629700D01*
X184645056Y-183629700D02*
X184573627Y-183701128D01*
X184573627Y-183701128D02*
X184502199Y-183629700D01*
X184502199Y-183629700D02*
X184573627Y-183558271D01*
X184573627Y-183558271D02*
X184573627Y-183701128D01*
X184573627Y-182772557D02*
X184645056Y-182843985D01*
X184645056Y-182843985D02*
X184573627Y-182915414D01*
X184573627Y-182915414D02*
X184502199Y-182843985D01*
X184502199Y-182843985D02*
X184573627Y-182772557D01*
X184573627Y-182772557D02*
X184573627Y-182915414D01*
D10*
D12*
D10*
D11*
D10*
D11*
D10*
D11*
D10*
D11*
D10*
D11*
X197002200Y-191507200D02*
X197002200Y-194507200D01*
D10*
D11*
X261002200Y-191507200D02*
X261002200Y-198007200D01*
D14*
X165506400Y-129820800D03*
X170506400Y-129820800D03*
X170506400Y-128320800D03*
X165506400Y-128320800D03*
X146558000Y-129844800D03*
X151558000Y-129844800D03*
X151558000Y-128344800D03*
X146558000Y-128344800D03*
X127558800Y-132106800D03*
X132558800Y-132106800D03*
X132558800Y-130606800D03*
X127558800Y-130606800D03*
D15*
X98421362Y-127699200D03*
X100921362Y-132029328D03*
X102220400Y-131279328D03*
X99720400Y-126949200D03*
D14*
X99060000Y-103682800D03*
X104060000Y-103682800D03*
X104060000Y-102182800D03*
X99060000Y-102182800D03*
D16*
X84688035Y-53499272D03*
X84688035Y-58579272D03*
X86938035Y-53499272D03*
X86938035Y-58579272D03*
D17*
X86150000Y-40800000D03*
X86150000Y-47800000D03*
X87900000Y-40800000D03*
X87900000Y-47800000D03*
D18*
X84050000Y-49600000D03*
X90000000Y-49600000D03*
X84050000Y-45600000D03*
X90000000Y-45600000D03*
X84050000Y-42600000D03*
X90000000Y-42600000D03*
X85800000Y-51100000D03*
X88250000Y-51100000D03*
D16*
X84700000Y-60700000D03*
X86900000Y-60700000D03*
D19*
X129600000Y-59600000D03*
X205800000Y-61800000D03*
X129600000Y-97600000D03*
X205800000Y-100000000D03*
X105000000Y-114800000D03*
D20*
X92180000Y-41230000D03*
X108718815Y-42425745D03*
X92180000Y-43770000D03*
X108718815Y-44965745D03*
X92180000Y-46310000D03*
X108718815Y-47505745D03*
X92180000Y-48850000D03*
X108718815Y-50045745D03*
X92180000Y-51390000D03*
X108718815Y-52585745D03*
X92180000Y-53930000D03*
X108718815Y-55125745D03*
X92180000Y-56470000D03*
X108718815Y-57665745D03*
X92180000Y-59010000D03*
X108718815Y-60205745D03*
X92180000Y-61550000D03*
X108718815Y-62745745D03*
X92180000Y-64090000D03*
X108718815Y-65285745D03*
X92180000Y-66630000D03*
X108718815Y-67825745D03*
X92180000Y-69170000D03*
X108718815Y-70365745D03*
X93478815Y-70365745D03*
X107420000Y-69170000D03*
X93478815Y-67825745D03*
X107420000Y-66630000D03*
X93478815Y-65285745D03*
X107420000Y-64090000D03*
X93478815Y-62745745D03*
X107420000Y-61550000D03*
X93478815Y-60205745D03*
X107420000Y-59010000D03*
X93478815Y-57665745D03*
X107420000Y-56470000D03*
X93478815Y-55125745D03*
X107420000Y-53930000D03*
X93478815Y-52585745D03*
X107420000Y-51390000D03*
X93478815Y-50045745D03*
X107420000Y-48850000D03*
X93478815Y-47505745D03*
X107420000Y-46310000D03*
X93478815Y-44965745D03*
X107420000Y-43770000D03*
X93478815Y-42425745D03*
X107420000Y-41230000D03*
D21*
X85000000Y-70950000D03*
X85000000Y-64450000D03*
D22*
X86000000Y-85000000D03*
X108000000Y-85000000D03*
D16*
X96700000Y-74600000D03*
X99240000Y-74600000D03*
X101780000Y-74600000D03*
X104320000Y-74600000D03*
D14*
X194288400Y-58470800D03*
X199288400Y-58470800D03*
X199288400Y-56970800D03*
X194288400Y-56970800D03*
D23*
X156237600Y-111404400D03*
X156237600Y-114704400D03*
X161137600Y-114704400D03*
X161137600Y-111404400D03*
D24*
X134427200Y-104789600D03*
D25*
X135697200Y-102249600D03*
X136967200Y-99709600D03*
D26*
X139507200Y-104789600D03*
D25*
X142047200Y-99709600D03*
X143317200Y-102249600D03*
D24*
X144587200Y-104789600D03*
D27*
X132507200Y-102209600D03*
X145207200Y-99669600D03*
D14*
X175107600Y-91822400D03*
X180107600Y-91822400D03*
X180107600Y-90322400D03*
X175107600Y-90322400D03*
X156159200Y-109500800D03*
X161159200Y-109500800D03*
X161159200Y-108000800D03*
X156159200Y-108000800D03*
D24*
X163017200Y-123748800D03*
D25*
X164287200Y-121208800D03*
X165557200Y-118668800D03*
D26*
X168097200Y-123748800D03*
D25*
X170637200Y-118668800D03*
X171907200Y-121208800D03*
D24*
X173177200Y-123748800D03*
D27*
X161097200Y-121168800D03*
X173797200Y-118628800D03*
D14*
X117936000Y-75160000D03*
X122936000Y-75160000D03*
X122936000Y-73660000D03*
X117936000Y-73660000D03*
D24*
X172516800Y-66598800D03*
D25*
X173786800Y-64058800D03*
X175056800Y-61518800D03*
D26*
X177596800Y-66598800D03*
D25*
X180136800Y-61518800D03*
X181406800Y-64058800D03*
D24*
X182676800Y-66598800D03*
D27*
X170596800Y-64018800D03*
X183296800Y-61478800D03*
D24*
X172516800Y-47599600D03*
D25*
X173786800Y-45059600D03*
X175056800Y-42519600D03*
D26*
X177596800Y-47599600D03*
D25*
X180136800Y-42519600D03*
X181406800Y-45059600D03*
D24*
X182676800Y-47599600D03*
D27*
X170596800Y-45019600D03*
X183296800Y-42479600D03*
D24*
X102454350Y-122578536D03*
D25*
X105289055Y-122408388D03*
X108123759Y-122238240D03*
D26*
X104994350Y-126977945D03*
D25*
X110663759Y-126637650D03*
X109099055Y-129007502D03*
D24*
X107534350Y-131377354D03*
D28*
X103728696Y-119625767D03*
X112278400Y-129354290D03*
D24*
X210627200Y-91988000D03*
D25*
X211897200Y-89448000D03*
X213167200Y-86908000D03*
D26*
X215707200Y-91988000D03*
D25*
X218247200Y-86908000D03*
X219517200Y-89448000D03*
D24*
X220787200Y-91988000D03*
D27*
X208707200Y-89408000D03*
X221407200Y-86868000D03*
D24*
X115428000Y-107075600D03*
D25*
X116698000Y-104535600D03*
X117968000Y-101995600D03*
D26*
X120508000Y-107075600D03*
D25*
X123048000Y-101995600D03*
X124318000Y-104535600D03*
D24*
X125588000Y-107075600D03*
D27*
X113508000Y-104495600D03*
X126208000Y-101955600D03*
D14*
X194136000Y-115620800D03*
X199136000Y-115620800D03*
X199136000Y-114120800D03*
X194136000Y-114120800D03*
X137036800Y-72874000D03*
X142036800Y-72874000D03*
X142036800Y-71374000D03*
X137036800Y-71374000D03*
X156137600Y-90501600D03*
X161137600Y-90501600D03*
X161137600Y-89001600D03*
X156137600Y-89001600D03*
D24*
X191628000Y-109514000D03*
D25*
X192898000Y-106974000D03*
X194168000Y-104434000D03*
D26*
X196708000Y-109514000D03*
D25*
X199248000Y-104434000D03*
X200518000Y-106974000D03*
D24*
X201788000Y-109514000D03*
D27*
X189708000Y-106934000D03*
X202408000Y-104394000D03*
D14*
X156188400Y-52046000D03*
X161188400Y-52046000D03*
X161188400Y-50546000D03*
X156188400Y-50546000D03*
D24*
X172527200Y-85688800D03*
D25*
X173797200Y-83148800D03*
X175067200Y-80608800D03*
D26*
X177607200Y-85688800D03*
D25*
X180147200Y-80608800D03*
X181417200Y-83148800D03*
D24*
X182687200Y-85688800D03*
D27*
X170607200Y-83108800D03*
X183307200Y-80568800D03*
D14*
X137047600Y-110935200D03*
X142047600Y-110935200D03*
X142047600Y-109435200D03*
X137047600Y-109435200D03*
X117936000Y-94234000D03*
X122936000Y-94234000D03*
X122936000Y-92734000D03*
X117936000Y-92734000D03*
D24*
X134427200Y-66740400D03*
D25*
X135697200Y-64200400D03*
X136967200Y-61660400D03*
D26*
X139507200Y-66740400D03*
D25*
X142047200Y-61660400D03*
X143317200Y-64200400D03*
D24*
X144587200Y-66740400D03*
D27*
X132507200Y-64160400D03*
X145207200Y-61620400D03*
D24*
X96327200Y-97474400D03*
D25*
X97597200Y-94934400D03*
X98867200Y-92394400D03*
D26*
X101407200Y-97474400D03*
D25*
X103947200Y-92394400D03*
X105217200Y-94934400D03*
D24*
X106487200Y-97474400D03*
D27*
X94407200Y-94894400D03*
X107107200Y-92354400D03*
D14*
X213186000Y-98145600D03*
X218186000Y-98145600D03*
X218186000Y-96645600D03*
X213186000Y-96645600D03*
D23*
X194404400Y-60224400D03*
X194404400Y-63524400D03*
X199304400Y-63524400D03*
X199304400Y-60224400D03*
D24*
X153528000Y-46217200D03*
D25*
X154798000Y-43677200D03*
X156068000Y-41137200D03*
D26*
X158608000Y-46217200D03*
D25*
X161148000Y-41137200D03*
X162418000Y-43677200D03*
D24*
X163688000Y-46217200D03*
D27*
X151608000Y-43637200D03*
X164308000Y-41097200D03*
D24*
X115407200Y-50027200D03*
D25*
X116677200Y-47487200D03*
X117947200Y-44947200D03*
D26*
X120487200Y-50027200D03*
D25*
X123027200Y-44947200D03*
X124297200Y-47487200D03*
D24*
X125567200Y-50027200D03*
D27*
X113487200Y-47447200D03*
X126187200Y-44907200D03*
D24*
X134427200Y-85688800D03*
D25*
X135697200Y-83148800D03*
X136967200Y-80608800D03*
D26*
X139507200Y-85688800D03*
D25*
X142047200Y-80608800D03*
X143317200Y-83148800D03*
D24*
X144587200Y-85688800D03*
D27*
X132507200Y-83108800D03*
X145207200Y-80568800D03*
D24*
X153568400Y-65278000D03*
D25*
X154838400Y-62738000D03*
X156108400Y-60198000D03*
D26*
X158648400Y-65278000D03*
D25*
X161188400Y-60198000D03*
X162458400Y-62738000D03*
D24*
X163728400Y-65278000D03*
D27*
X151648400Y-62698000D03*
X164348400Y-60158000D03*
D23*
X156152000Y-54128400D03*
X156152000Y-57428400D03*
X161052000Y-57428400D03*
X161052000Y-54128400D03*
X118036000Y-57962800D03*
X118036000Y-61262800D03*
X122936000Y-61262800D03*
X122936000Y-57962800D03*
D14*
X117957600Y-113233200D03*
X122957600Y-113233200D03*
X122957600Y-111733200D03*
X117957600Y-111733200D03*
D24*
X124927600Y-125973200D03*
D25*
X126197600Y-123433200D03*
X127467600Y-120893200D03*
D26*
X130007600Y-125973200D03*
D25*
X132547600Y-120893200D03*
X133817600Y-123433200D03*
D24*
X135087600Y-125973200D03*
D27*
X123007600Y-123393200D03*
X135707600Y-120853200D03*
D24*
X210678000Y-110998000D03*
D25*
X211948000Y-108458000D03*
X213218000Y-105918000D03*
D26*
X215758000Y-110998000D03*
D25*
X218298000Y-105918000D03*
X219568000Y-108458000D03*
D24*
X220838000Y-110998000D03*
D27*
X208758000Y-108418000D03*
X221458000Y-105878000D03*
D23*
X117985200Y-114808000D03*
X117985200Y-118108000D03*
X122885200Y-118108000D03*
X122885200Y-114808000D03*
D14*
X194259200Y-77368400D03*
X199259200Y-77368400D03*
X199259200Y-75868400D03*
X194259200Y-75868400D03*
D24*
X115428000Y-69077200D03*
D25*
X116698000Y-66537200D03*
X117968000Y-63997200D03*
D26*
X120508000Y-69077200D03*
D25*
X123048000Y-63997200D03*
X124318000Y-66537200D03*
D24*
X125588000Y-69077200D03*
D27*
X113508000Y-66497200D03*
X126208000Y-63957200D03*
D14*
X213287600Y-117171600D03*
X218287600Y-117171600D03*
X218287600Y-115671600D03*
X213287600Y-115671600D03*
D24*
X172527200Y-104789600D03*
D25*
X173797200Y-102249600D03*
X175067200Y-99709600D03*
D26*
X177607200Y-104789600D03*
D25*
X180147200Y-99709600D03*
X181417200Y-102249600D03*
D24*
X182687200Y-104789600D03*
D27*
X170607200Y-102209600D03*
X183307200Y-99669600D03*
D29*
X93515523Y-98435813D03*
D30*
X95628614Y-102967352D03*
X94572069Y-100701582D03*
D31*
X99002715Y-92456622D03*
X103736039Y-102607269D03*
D30*
X108770077Y-96839387D03*
X106656986Y-92307848D03*
D24*
X153528000Y-103367200D03*
D25*
X154798000Y-100827200D03*
X156068000Y-98287200D03*
D26*
X158608000Y-103367200D03*
D25*
X161148000Y-98287200D03*
X162418000Y-100827200D03*
D24*
X163688000Y-103367200D03*
D27*
X151608000Y-100787200D03*
X164308000Y-98247200D03*
D14*
X213236800Y-78943200D03*
X218236800Y-78943200D03*
X218236800Y-77443200D03*
X213236800Y-77443200D03*
X213196800Y-60045600D03*
X218196800Y-60045600D03*
X218196800Y-58545600D03*
X213196800Y-58545600D03*
D24*
X134406400Y-47588800D03*
D25*
X135676400Y-45048800D03*
X136946400Y-42508800D03*
D26*
X139486400Y-47588800D03*
D25*
X142026400Y-42508800D03*
X143296400Y-45048800D03*
D24*
X144566400Y-47588800D03*
D27*
X132486400Y-45008800D03*
X145186400Y-42468800D03*
D14*
X175158400Y-53773200D03*
X180158400Y-53773200D03*
X180158400Y-52273200D03*
X175158400Y-52273200D03*
X137087600Y-53746400D03*
X142087600Y-53746400D03*
X142087600Y-52246400D03*
X137087600Y-52246400D03*
D24*
X210616800Y-53898800D03*
D25*
X211886800Y-51358800D03*
X213156800Y-48818800D03*
D26*
X215696800Y-53898800D03*
D25*
X218236800Y-48818800D03*
X219506800Y-51358800D03*
D24*
X220776800Y-53898800D03*
D27*
X208696800Y-51318800D03*
X221396800Y-48778800D03*
D24*
X143926800Y-123738000D03*
D25*
X145196800Y-121198000D03*
X146466800Y-118658000D03*
D26*
X149006800Y-123738000D03*
D25*
X151546800Y-118658000D03*
X152816800Y-121198000D03*
D24*
X154086800Y-123738000D03*
D27*
X142006800Y-121158000D03*
X154706800Y-118618000D03*
D14*
X194237600Y-96621600D03*
X199237600Y-96621600D03*
X199237600Y-95121600D03*
X194237600Y-95121600D03*
X175158400Y-72796400D03*
X180158400Y-72796400D03*
X180158400Y-71296400D03*
X175158400Y-71296400D03*
D24*
X210627200Y-72785600D03*
D25*
X211897200Y-70245600D03*
X213167200Y-67705600D03*
D26*
X215707200Y-72785600D03*
D25*
X218247200Y-67705600D03*
X219517200Y-70245600D03*
D24*
X220787200Y-72785600D03*
D27*
X208707200Y-70205600D03*
X221407200Y-67665600D03*
D24*
X153528000Y-84368000D03*
D25*
X154798000Y-81828000D03*
X156068000Y-79288000D03*
D26*
X158608000Y-84368000D03*
D25*
X161148000Y-79288000D03*
X162418000Y-81828000D03*
D24*
X163688000Y-84368000D03*
D27*
X151608000Y-81788000D03*
X164308000Y-79248000D03*
D14*
X156188400Y-71451600D03*
X161188400Y-71451600D03*
X161188400Y-69951600D03*
X156188400Y-69951600D03*
D24*
X191617600Y-52374800D03*
D25*
X192887600Y-49834800D03*
X194157600Y-47294800D03*
D26*
X196697600Y-52374800D03*
D25*
X199237600Y-47294800D03*
X200507600Y-49834800D03*
D24*
X201777600Y-52374800D03*
D27*
X189697600Y-49794800D03*
X202397600Y-47254800D03*
D24*
X115428000Y-88076400D03*
D25*
X116698000Y-85536400D03*
X117968000Y-82996400D03*
D26*
X120508000Y-88076400D03*
D25*
X123048000Y-82996400D03*
X124318000Y-85536400D03*
D24*
X125588000Y-88076400D03*
D27*
X113508000Y-85496400D03*
X126208000Y-82956400D03*
D24*
X191628000Y-90464000D03*
D25*
X192898000Y-87924000D03*
X194168000Y-85384000D03*
D26*
X196708000Y-90464000D03*
D25*
X199248000Y-85384000D03*
X200518000Y-87924000D03*
D24*
X201788000Y-90464000D03*
D27*
X189708000Y-87884000D03*
X202408000Y-85344000D03*
D14*
X175158400Y-110947200D03*
X180158400Y-110947200D03*
X180158400Y-109447200D03*
X175158400Y-109447200D03*
X118088400Y-56184800D03*
X123088400Y-56184800D03*
X123088400Y-54684800D03*
X118088400Y-54684800D03*
D24*
X191628000Y-71261600D03*
D25*
X192898000Y-68721600D03*
X194168000Y-66181600D03*
D26*
X196708000Y-71261600D03*
D25*
X199248000Y-66181600D03*
X200518000Y-68721600D03*
D24*
X201788000Y-71261600D03*
D27*
X189708000Y-68681600D03*
X202408000Y-66141600D03*
D14*
X137109200Y-91873200D03*
X142109200Y-91873200D03*
X142109200Y-90373200D03*
X137109200Y-90373200D03*
D23*
X194236000Y-98452400D03*
X194236000Y-101752400D03*
X199136000Y-101752400D03*
X199136000Y-98452400D03*
D32*
X101700000Y-69800380D03*
X101700000Y-68799620D03*
X99200000Y-69800380D03*
X99200000Y-68799620D03*
X96700000Y-69800380D03*
X96700000Y-68799620D03*
X104300000Y-69800380D03*
X104300000Y-68799620D03*
D33*
X181113524Y-120860778D02*
X181819348Y-120789735D01*
X82937777Y-88592317D02*
X83135690Y-92617561D01*
X178319348Y-129161894D02*
X178319348Y-130379933D01*
X225460000Y-100326490D02*
X225460000Y-109808112D01*
X125619545Y-37086762D02*
X115211711Y-37086762D01*
X213424836Y-120789735D02*
X218692418Y-120789735D01*
X225342217Y-119873887D02*
X225204001Y-120128696D01*
X225460000Y-43436755D02*
X224278471Y-42156190D01*
X224544152Y-120671952D02*
X224262495Y-120759288D01*
X83490297Y-96657663D02*
X84020972Y-100690825D01*
X103842470Y-143386445D02*
X103981252Y-143413974D01*
X114510925Y-137450923D02*
X116186619Y-136480784D01*
X82937528Y-82285296D02*
X82937528Y-75978362D01*
X93344258Y-125721062D02*
X95019952Y-128587381D01*
X83400937Y-37265961D02*
X83579303Y-37169210D01*
X104803877Y-37086762D02*
X94396044Y-37086762D01*
X181819348Y-120789735D02*
X187086929Y-120789735D01*
X111159536Y-139391201D02*
X112835230Y-138421062D01*
X106132452Y-142301617D02*
X107808147Y-141331479D01*
X224262495Y-120759288D02*
X223959999Y-120789735D01*
X177658308Y-135255660D02*
X177403500Y-135393876D01*
X225460000Y-81363245D02*
X225460000Y-90844867D01*
X83579303Y-37169210D02*
X83776462Y-37108075D01*
X218692418Y-120789735D02*
X223959999Y-120789735D01*
X103714328Y-143322532D02*
X103842470Y-143386445D01*
X156843047Y-37086762D02*
X146435213Y-37086762D01*
X91668563Y-122854742D02*
X93344258Y-125721062D01*
X220889319Y-40963847D02*
X215525697Y-39885159D01*
X177121844Y-135481211D02*
X176819348Y-135511658D01*
X82937528Y-69671429D02*
X82937528Y-63364495D01*
X178319348Y-132816013D02*
X178319348Y-134011658D01*
X178319348Y-124289735D02*
X178390391Y-123583911D01*
X83245570Y-37394123D02*
X83400937Y-37265961D01*
X147341260Y-135511658D02*
X154710782Y-135511658D01*
X84747083Y-104695246D02*
X85688004Y-108649127D01*
X132602217Y-135511658D02*
X139971738Y-135511658D01*
X178201565Y-134595810D02*
X178063349Y-134850619D01*
X112835230Y-138421062D02*
X114510925Y-137450923D01*
X82937528Y-63364495D02*
X82937528Y-57057562D01*
X94396044Y-37086762D02*
X83988210Y-37086762D01*
X103491837Y-143088150D02*
X103597295Y-143222884D01*
X103398425Y-142918979D02*
X103491837Y-143088150D01*
X136027379Y-37086762D02*
X125619545Y-37086762D01*
X103597295Y-143222884D02*
X103714328Y-143322532D01*
X199807654Y-38170488D02*
X189919538Y-37585374D01*
X116186619Y-136480784D02*
X117862313Y-135510645D01*
X178319348Y-124289735D02*
X178319348Y-125507775D01*
X192354511Y-120789735D02*
X197622092Y-120789735D01*
X96695647Y-131453701D02*
X98371341Y-134320020D01*
X82959523Y-37925015D02*
X83020657Y-37727855D01*
X100047036Y-137186340D02*
X101722730Y-140052659D01*
X225459999Y-119289735D02*
X225429552Y-119592231D01*
X178989563Y-37215654D02*
X167250881Y-37086762D01*
X225460000Y-90844867D02*
X225460000Y-100326490D01*
X117863173Y-135511658D02*
X125232695Y-135511658D01*
X178390391Y-123583911D02*
X178594174Y-122926713D01*
X225460000Y-71881623D02*
X225460000Y-81363245D01*
X197622092Y-120789735D02*
X202889673Y-120789735D01*
X83020657Y-37727855D02*
X83117409Y-37549489D01*
X88291758Y-116318073D02*
X89993333Y-119989540D01*
X82937528Y-44443695D02*
X82937528Y-38136762D01*
X101722730Y-140052659D02*
X103398425Y-142918979D01*
X202889673Y-120789735D02*
X208157255Y-120789735D01*
X104130206Y-143404468D02*
X104288864Y-143357278D01*
X225460000Y-52918378D02*
X225460000Y-62400000D01*
X95019952Y-128587381D02*
X96695647Y-131453701D01*
X139971738Y-135511658D02*
X147341260Y-135511658D01*
X82938210Y-38136762D02*
X82959523Y-37925015D01*
X98371341Y-134320020D02*
X100047036Y-137186340D01*
X225460000Y-109808112D02*
X225460000Y-119289735D01*
X177880261Y-135072571D02*
X177658308Y-135255660D01*
X224278471Y-42156190D02*
X220889319Y-40963847D01*
X178319348Y-127943854D02*
X178319348Y-129161894D01*
X178063349Y-134850619D02*
X177880261Y-135072571D01*
X177403500Y-135393876D02*
X177121844Y-135481211D01*
X178319348Y-134011658D02*
X178288901Y-134314154D01*
X167250881Y-37086762D02*
X156843047Y-37086762D01*
X154710782Y-135511658D02*
X162080304Y-135511658D01*
X169449826Y-135511658D02*
X176819348Y-135511658D01*
X178916678Y-122332160D02*
X179343884Y-121814271D01*
X178319348Y-125507775D02*
X178319348Y-126725814D01*
X180456326Y-121064561D02*
X181113524Y-120860778D01*
X178319348Y-130379933D02*
X178319348Y-131597973D01*
X82937528Y-88592229D02*
X82937528Y-82285296D01*
X225460000Y-62400000D02*
X225460000Y-71881623D01*
X107808147Y-141331479D02*
X109483841Y-140361340D01*
X189919538Y-37585374D02*
X178989563Y-37215654D01*
X104456758Y-143271756D02*
X106132452Y-142301617D01*
X109483841Y-140361340D02*
X111159536Y-139391201D01*
X208420758Y-38945561D02*
X199807654Y-38170488D01*
X83776462Y-37108075D02*
X83988210Y-37086762D01*
X224798960Y-120533736D02*
X224544152Y-120671952D01*
X85688004Y-108649127D02*
X86863105Y-112530670D01*
X225429552Y-119592231D02*
X225342217Y-119873887D01*
X83135690Y-92617561D02*
X83490297Y-96657663D01*
X225460000Y-43436755D02*
X225460000Y-52918378D01*
X82937528Y-57057562D02*
X82937528Y-50750629D01*
X179861773Y-121387065D02*
X180456326Y-121064561D01*
X187086929Y-120789735D02*
X192354511Y-120789735D01*
X162080304Y-135511658D02*
X169449826Y-135511658D01*
X104288864Y-143357278D02*
X104456758Y-143271756D01*
X82937528Y-50750629D02*
X82937528Y-44443695D01*
X225020912Y-120350648D02*
X224798960Y-120533736D01*
X208157255Y-120789735D02*
X213424836Y-120789735D01*
X83117409Y-37549489D02*
X83245570Y-37394123D01*
X84020972Y-100690825D02*
X84747083Y-104695246D01*
X125232695Y-135511658D02*
X132602217Y-135511658D01*
X103981252Y-143413974D02*
X104130206Y-143404468D01*
X89992869Y-119988423D02*
X91668563Y-122854742D01*
X146435213Y-37086762D02*
X136027379Y-37086762D01*
X115211711Y-37086762D02*
X104803877Y-37086762D01*
X82937528Y-75978362D02*
X82937528Y-69671429D01*
X179343884Y-121814271D02*
X179861773Y-121387065D01*
X178594174Y-122926713D02*
X178916678Y-122332160D01*
X225204001Y-120128696D02*
X225020912Y-120350648D01*
X178319348Y-131597973D02*
X178319348Y-132816013D01*
X178319348Y-126725814D02*
X178319348Y-127943854D01*
X178288901Y-134314154D02*
X178201565Y-134595810D01*
X86863105Y-112530670D02*
X88291758Y-116318073D01*
X215525697Y-39885159D02*
X208420758Y-38945561D01*
D34*
X166206400Y-127370800D02*
X169806400Y-127370800D01*
X169806400Y-127370800D02*
X169806400Y-130770800D01*
X169806400Y-130770800D02*
X166206400Y-130770800D01*
X166206400Y-130770800D02*
X166206400Y-127370800D01*
X147258000Y-127394800D02*
X150858000Y-127394800D01*
X150858000Y-127394800D02*
X150858000Y-130794800D01*
X150858000Y-130794800D02*
X147258000Y-130794800D01*
X147258000Y-130794800D02*
X147258000Y-127394800D01*
X128258800Y-129656800D02*
X131858800Y-129656800D01*
X131858800Y-129656800D02*
X131858800Y-133056800D01*
X131858800Y-133056800D02*
X128258800Y-133056800D01*
X128258800Y-133056800D02*
X128258800Y-129656800D01*
X100893124Y-127080418D02*
X102693124Y-130198110D01*
X102693124Y-130198110D02*
X99748638Y-131898110D01*
X99748638Y-131898110D02*
X97948638Y-128780418D01*
X97948638Y-128780418D02*
X100893124Y-127080418D01*
X99760000Y-101232800D02*
X103360000Y-101232800D01*
X103360000Y-101232800D02*
X103360000Y-104632800D01*
X103360000Y-104632800D02*
X99760000Y-104632800D01*
X99760000Y-104632800D02*
X99760000Y-101232800D01*
X194988400Y-56020800D02*
X198588400Y-56020800D01*
X198588400Y-56020800D02*
X198588400Y-59420800D01*
X198588400Y-59420800D02*
X194988400Y-59420800D01*
X194988400Y-59420800D02*
X194988400Y-56020800D01*
X175807600Y-89372400D02*
X179407600Y-89372400D01*
X179407600Y-89372400D02*
X179407600Y-92772400D01*
X179407600Y-92772400D02*
X175807600Y-92772400D01*
X175807600Y-92772400D02*
X175807600Y-89372400D01*
X156859200Y-107050800D02*
X160459200Y-107050800D01*
X160459200Y-107050800D02*
X160459200Y-110450800D01*
X160459200Y-110450800D02*
X156859200Y-110450800D01*
X156859200Y-110450800D02*
X156859200Y-107050800D01*
X118636000Y-72710000D02*
X122236000Y-72710000D01*
X122236000Y-72710000D02*
X122236000Y-76110000D01*
X122236000Y-76110000D02*
X118636000Y-76110000D01*
X118636000Y-76110000D02*
X118636000Y-72710000D01*
X194836000Y-113170800D02*
X198436000Y-113170800D01*
X198436000Y-113170800D02*
X198436000Y-116570800D01*
X198436000Y-116570800D02*
X194836000Y-116570800D01*
X194836000Y-116570800D02*
X194836000Y-113170800D01*
X137736800Y-70424000D02*
X141336800Y-70424000D01*
X141336800Y-70424000D02*
X141336800Y-73824000D01*
X141336800Y-73824000D02*
X137736800Y-73824000D01*
X137736800Y-73824000D02*
X137736800Y-70424000D01*
X156837600Y-88051600D02*
X160437600Y-88051600D01*
X160437600Y-88051600D02*
X160437600Y-91451600D01*
X160437600Y-91451600D02*
X156837600Y-91451600D01*
X156837600Y-91451600D02*
X156837600Y-88051600D01*
X156888400Y-49596000D02*
X160488400Y-49596000D01*
X160488400Y-49596000D02*
X160488400Y-52996000D01*
X160488400Y-52996000D02*
X156888400Y-52996000D01*
X156888400Y-52996000D02*
X156888400Y-49596000D01*
X137747600Y-108485200D02*
X141347600Y-108485200D01*
X141347600Y-108485200D02*
X141347600Y-111885200D01*
X141347600Y-111885200D02*
X137747600Y-111885200D01*
X137747600Y-111885200D02*
X137747600Y-108485200D01*
X118636000Y-91784000D02*
X122236000Y-91784000D01*
X122236000Y-91784000D02*
X122236000Y-95184000D01*
X122236000Y-95184000D02*
X118636000Y-95184000D01*
X118636000Y-95184000D02*
X118636000Y-91784000D01*
X213886000Y-95695600D02*
X217486000Y-95695600D01*
X217486000Y-95695600D02*
X217486000Y-99095600D01*
X217486000Y-99095600D02*
X213886000Y-99095600D01*
X213886000Y-99095600D02*
X213886000Y-95695600D01*
X118657600Y-110783200D02*
X122257600Y-110783200D01*
X122257600Y-110783200D02*
X122257600Y-114183200D01*
X122257600Y-114183200D02*
X118657600Y-114183200D01*
X118657600Y-114183200D02*
X118657600Y-110783200D01*
X194959200Y-74918400D02*
X198559200Y-74918400D01*
X198559200Y-74918400D02*
X198559200Y-78318400D01*
X198559200Y-78318400D02*
X194959200Y-78318400D01*
X194959200Y-78318400D02*
X194959200Y-74918400D01*
X213987600Y-114721600D02*
X217587600Y-114721600D01*
X217587600Y-114721600D02*
X217587600Y-118121600D01*
X217587600Y-118121600D02*
X213987600Y-118121600D01*
X213987600Y-118121600D02*
X213987600Y-114721600D01*
X213936800Y-76493200D02*
X217536800Y-76493200D01*
X217536800Y-76493200D02*
X217536800Y-79893200D01*
X217536800Y-79893200D02*
X213936800Y-79893200D01*
X213936800Y-79893200D02*
X213936800Y-76493200D01*
X213896800Y-57595600D02*
X217496800Y-57595600D01*
X217496800Y-57595600D02*
X217496800Y-60995600D01*
X217496800Y-60995600D02*
X213896800Y-60995600D01*
X213896800Y-60995600D02*
X213896800Y-57595600D01*
X175858400Y-51323200D02*
X179458400Y-51323200D01*
X179458400Y-51323200D02*
X179458400Y-54723200D01*
X179458400Y-54723200D02*
X175858400Y-54723200D01*
X175858400Y-54723200D02*
X175858400Y-51323200D01*
X137787600Y-51296400D02*
X141387600Y-51296400D01*
X141387600Y-51296400D02*
X141387600Y-54696400D01*
X141387600Y-54696400D02*
X137787600Y-54696400D01*
X137787600Y-54696400D02*
X137787600Y-51296400D01*
X194937600Y-94171600D02*
X198537600Y-94171600D01*
X198537600Y-94171600D02*
X198537600Y-97571600D01*
X198537600Y-97571600D02*
X194937600Y-97571600D01*
X194937600Y-97571600D02*
X194937600Y-94171600D01*
X175858400Y-70346400D02*
X179458400Y-70346400D01*
X179458400Y-70346400D02*
X179458400Y-73746400D01*
X179458400Y-73746400D02*
X175858400Y-73746400D01*
X175858400Y-73746400D02*
X175858400Y-70346400D01*
X156888400Y-69001600D02*
X160488400Y-69001600D01*
X160488400Y-69001600D02*
X160488400Y-72401600D01*
X160488400Y-72401600D02*
X156888400Y-72401600D01*
X156888400Y-72401600D02*
X156888400Y-69001600D01*
X175858400Y-108497200D02*
X179458400Y-108497200D01*
X179458400Y-108497200D02*
X179458400Y-111897200D01*
X179458400Y-111897200D02*
X175858400Y-111897200D01*
X175858400Y-111897200D02*
X175858400Y-108497200D01*
X118788400Y-53734800D02*
X122388400Y-53734800D01*
X122388400Y-53734800D02*
X122388400Y-57134800D01*
X122388400Y-57134800D02*
X118788400Y-57134800D01*
X118788400Y-57134800D02*
X118788400Y-53734800D01*
X137809200Y-89423200D02*
X141409200Y-89423200D01*
X141409200Y-89423200D02*
X141409200Y-92823200D01*
X141409200Y-92823200D02*
X137809200Y-92823200D01*
X137809200Y-92823200D02*
X137809200Y-89423200D01*
M02*
