M48
; DRILL file {KiCad 7.0.1-0} date 2023 March 25, Saturday 18:19:31
; FORMAT={-:-/ absolute / inch / decimal}
; #@! TF.CreationDate,2023-03-25T18:19:31+07:00
; #@! TF.GenerationSoftware,Kicad,Pcbnew,7.0.1-0
; #@! TF.FileFunction,MixedPlating,1,2
FMAT,2
INCH
; #@! TA.AperFunction,Plated,PTH,ViaDrill
T1C0.0118
; #@! TA.AperFunction,Plated,PTH,ComponentDrill
T2C0.0197
; #@! TA.AperFunction,Plated,PTH,ComponentDrill
T3C0.0320
; #@! TA.AperFunction,Plated,PTH,ComponentDrill
T4C0.0394
; #@! TA.AperFunction,Plated,PTH,ComponentDrill
T5C0.0512
; #@! TA.AperFunction,Plated,PTH,ComponentDrill
T6C0.0591
; #@! TA.AperFunction,Plated,PTH,ComponentDrill
T7C0.1850
; #@! TA.AperFunction,NonPlated,NPTH,ComponentDrill
T8C0.0472
; #@! TA.AperFunction,NonPlated,NPTH,ComponentDrill
T9C0.0709
; #@! TA.AperFunction,NonPlated,NPTH,ComponentDrill
T10C0.0866
; #@! TA.AperFunction,NonPlated,NPTH,ComponentDrill
T11C0.1181
; #@! TA.AperFunction,NonPlated,NPTH,ComponentDrill
T12C0.1575
%
G90
G05
T1
X3.5433Y-1.878
X3.5541Y-2.2947
X3.5551Y-2.3268
X3.563Y-2.4567
X3.6693Y-3.6378
X3.7441Y-1.7402
X3.7815Y-2.6695
X3.7835Y-2.0232
X3.8071Y-2.6693
X3.815Y-1.7703
X3.815Y-1.9213
X3.9528Y-1.9703
X3.9528Y-2.7087
X4.0039Y-2.1232
X4.0236Y-5.1457
X4.0423Y-2.2703
X4.0551Y-2.7087
X4.0591Y-2.6732
X4.062Y-2.3703
X4.0827Y-2.4703
X4.0906Y-5.3898
X4.1024Y-3.9764
X4.1063Y-2.5423
X4.1339Y-2.5984
X4.1468Y-2.6406
X4.1575Y-2.0236
X4.1575Y-2.5669
X4.1614Y-2.2323
X4.1614Y-1.7323
X4.1614Y-2.3228
X4.1614Y-2.437
X4.1614Y-2.5197
X4.1614Y-1.6378
X4.1614Y-2.1339
X4.2205Y-4.6102
X4.2638Y-3.9291
X4.315Y-3.6417
X4.3228Y-3.0
X4.3268Y-3.1732
X4.3425Y-2.5236
X4.4213Y-2.5236
X4.4213Y-3.2677
X4.4252Y-1.7677
X4.4252Y-4.0157
X4.4567Y-5.185
X4.7992Y-4.7598
X4.8543Y-3.6024
X4.8543Y-4.3504
X4.8543Y-2.8583
X4.93Y-2.07
X5.0157Y-2.0591
X5.0157Y-2.811
X5.0157Y-3.5591
X5.0157Y-4.3071
X5.0591Y-1.7677
X5.063Y-4.0157
X5.0669Y-2.5197
X5.0669Y-3.2677
X5.1693Y-3.1732
X5.1693Y-3.9528
X5.1732Y-1.6732
X5.1732Y-2.4488
X5.2283Y-5.0945
X5.3898Y-5.0512
X5.4331Y-4.7598
X5.5433Y-4.6732
X5.6024Y-3.5157
X5.6024Y-2.0079
X5.6024Y-4.2638
X5.6024Y-2.7638
X5.7638Y-1.9646
X5.7638Y-2.7165
X5.7638Y-3.4646
X5.7638Y-4.2165
X5.8071Y-2.4252
X5.811Y-1.6732
X5.811Y-3.9252
X5.8189Y-3.1732
X5.9173Y-3.8701
X5.9213Y-3.122
X5.9252Y-1.6181
X5.9291Y-2.3701
X5.9764Y-5.0039
X6.1378Y-4.9646
X6.185Y-4.6732
X6.2953Y-4.6732
X6.3543Y-2.7047
X6.3543Y-1.9528
X6.3543Y-3.4567
X6.3543Y-4.2087
X6.5157Y-1.9094
X6.5157Y-2.6614
X6.5157Y-3.4134
X6.5157Y-4.1614
X6.5591Y-2.3701
X6.563Y-1.6181
X6.5669Y-3.122
X6.5669Y-3.8701
X6.6693Y-1.6732
X6.6693Y-3.9252
X6.6732Y-2.4213
X6.6732Y-3.1732
X6.7283Y-5.0118
X6.8898Y-4.9606
X6.937Y-4.6732
X7.1024Y-4.2598
X7.1024Y-2.0079
X7.1024Y-2.7559
X7.1024Y-3.5079
X7.2638Y-1.9646
X7.2638Y-2.7126
X7.2638Y-3.4646
X7.2638Y-4.2165
X7.3071Y-2.4213
X7.3071Y-3.9252
X7.311Y-1.6732
X7.3189Y-3.1732
X7.4213Y-3.3622
X7.4213Y-4.1102
X7.4252Y-1.8622
X7.4252Y-2.6063
X7.8543Y-2.1969
X7.8543Y-3.6969
X7.8543Y-2.9409
X7.862Y-4.38
X8.0157Y-2.1535
X8.0157Y-2.8976
X8.0157Y-3.6535
X8.0157Y-4.4016
X8.0591Y-1.8622
X8.0591Y-2.6063
X8.0669Y-3.3622
X8.0669Y-4.1102
X8.1575Y-1.9213
X8.1693Y-4.1693
X8.1732Y-2.6654
X8.1732Y-3.4213
X8.6024Y-2.252
X8.6024Y-3.0
X8.6024Y-3.752
X8.614Y-4.436
X8.7638Y-2.2126
X8.7638Y-2.9567
X8.7638Y-3.7126
X8.7638Y-4.4606
X8.8071Y-1.9213
X8.8071Y-2.6654
X8.815Y-3.4213
X8.815Y-4.1693
T3
X3.3342Y-2.1063
X3.3342Y-2.3063
X3.3346Y-2.3898
X3.4213Y-2.3898
X3.4228Y-2.1063
X3.4228Y-2.3063
X3.6291Y-1.6232
X3.6291Y-1.7232
X3.6291Y-1.8232
X3.6291Y-1.9232
X3.6291Y-2.0232
X3.6291Y-2.1232
X3.6291Y-2.2232
X3.6291Y-2.3232
X3.6291Y-2.4232
X3.6291Y-2.5232
X3.6291Y-2.6232
X3.6291Y-2.7232
X3.6803Y-1.6703
X3.6803Y-1.7703
X3.6803Y-1.8703
X3.6803Y-1.9703
X3.6803Y-2.0703
X3.6803Y-2.1703
X3.6803Y-2.2703
X3.6803Y-2.3703
X3.6803Y-2.4703
X3.6803Y-2.5703
X3.6803Y-2.6703
X3.6803Y-2.7703
X3.8071Y-2.937
X3.9071Y-2.937
X4.0071Y-2.937
X4.1071Y-2.937
X4.2291Y-1.6232
X4.2291Y-1.7232
X4.2291Y-1.8232
X4.2291Y-1.9232
X4.2291Y-2.0232
X4.2291Y-2.1232
X4.2291Y-2.2232
X4.2291Y-2.3232
X4.2291Y-2.4232
X4.2291Y-2.5232
X4.2291Y-2.6232
X4.2291Y-2.7232
X4.2803Y-1.6703
X4.2803Y-1.7703
X4.2803Y-1.8703
X4.2803Y-1.9703
X4.2803Y-2.0703
X4.2803Y-2.1703
X4.2803Y-2.2703
X4.2803Y-2.3703
X4.2803Y-2.4703
X4.2803Y-2.5703
X4.2803Y-2.6703
X4.2803Y-2.7703
T4
X3.6817Y-3.8754
X3.7233Y-3.9646
X3.7649Y-4.0538
X4.1991Y-3.6342
X4.2823Y-3.8126
T5
X3.3465Y-2.5374
X3.3465Y-2.7933
T7
X4.1339Y-4.5197
X5.1024Y-2.3465
X5.1024Y-3.8425
X8.1024Y-2.4331
X8.1024Y-3.937
T8
X3.3917Y-1.6063
X3.3917Y-1.8819
X3.4606Y-1.6063
X3.4606Y-1.8819
T9
X3.7924Y-3.8376
X4.0336Y-4.8259
X4.1924Y-3.8376
X4.2336Y-5.1723
X4.5436Y-1.9696
X4.5444Y-2.7196
X4.5444Y-3.4676
X4.5444Y-4.2156
X4.9184Y-4.9596
X4.9436Y-1.9696
X4.9444Y-2.7196
X4.9444Y-3.4676
X4.9444Y-4.2156
X5.2916Y-1.8736
X5.2924Y-2.6276
X5.2924Y-3.3736
X5.2924Y-4.1256
X5.3184Y-4.9596
X5.6664Y-4.8716
X5.6916Y-1.8736
X5.6924Y-2.6276
X5.6924Y-3.3736
X5.6924Y-4.1256
X6.0444Y-1.8196
X6.0444Y-3.3216
X6.0444Y-4.0696
X6.046Y-2.57
X6.0664Y-4.8716
X6.418Y-4.872
X6.4444Y-1.8196
X6.4444Y-3.3216
X6.4444Y-4.0696
X6.446Y-2.57
X6.792Y-1.874
X6.792Y-2.622
X6.7924Y-3.3736
X6.7924Y-4.1256
X6.818Y-4.872
X7.192Y-1.874
X7.192Y-2.622
X7.1924Y-3.3736
X7.1924Y-4.1256
X7.544Y-2.062
X7.5444Y-2.8056
X7.5444Y-3.5616
X7.5444Y-4.3116
X7.944Y-2.062
X7.9444Y-2.8056
X7.9444Y-3.5616
X7.9444Y-4.3116
X8.292Y-2.122
X8.2924Y-2.8656
X8.2924Y-3.6216
X8.2944Y-4.37
X8.692Y-2.122
X8.6924Y-2.8656
X8.6924Y-3.6216
X8.6944Y-4.37
T10
X3.3858Y-3.3465
X4.252Y-3.3465
T11
X3.8424Y-3.7376
X3.8924Y-3.6376
X4.0924Y-3.6376
X4.1424Y-3.7376
X4.1452Y-4.8192
X4.2568Y-4.8125
X4.2952Y-5.079
X4.3568Y-4.9857
X4.5936Y-1.8696
X4.5944Y-2.6196
X4.5944Y-3.3676
X4.5944Y-4.1156
X4.6436Y-1.7696
X4.6444Y-2.5196
X4.6444Y-3.2676
X4.6444Y-4.0156
X4.8436Y-1.7696
X4.8444Y-2.5196
X4.8444Y-3.2676
X4.8444Y-4.0156
X4.8936Y-1.8696
X4.8944Y-2.6196
X4.8944Y-3.3676
X4.8944Y-4.1156
X4.9684Y-4.8596
X5.0184Y-4.7596
X5.2184Y-4.7596
X5.2684Y-4.8596
X5.3416Y-1.7736
X5.3424Y-2.5276
X5.3424Y-3.2736
X5.3424Y-4.0256
X5.3916Y-1.6736
X5.3924Y-2.4276
X5.3924Y-3.1736
X5.3924Y-3.9256
X5.5916Y-1.6736
X5.5924Y-2.4276
X5.5924Y-3.1736
X5.5924Y-3.9256
X5.6416Y-1.7736
X5.6424Y-2.5276
X5.6424Y-3.2736
X5.6424Y-4.0256
X5.7164Y-4.7716
X5.7664Y-4.6716
X5.9664Y-4.6716
X6.0164Y-4.7716
X6.0944Y-1.7196
X6.0944Y-3.2216
X6.0944Y-3.9696
X6.096Y-2.47
X6.1444Y-1.6196
X6.1444Y-3.1216
X6.1444Y-3.8696
X6.146Y-2.37
X6.3444Y-1.6196
X6.3444Y-3.1216
X6.3444Y-3.8696
X6.346Y-2.37
X6.3944Y-1.7196
X6.3944Y-3.2216
X6.3944Y-3.9696
X6.396Y-2.47
X6.468Y-4.772
X6.518Y-4.672
X6.718Y-4.672
X6.768Y-4.772
X6.842Y-1.774
X6.842Y-2.522
X6.8424Y-3.2736
X6.8424Y-4.0256
X6.892Y-1.674
X6.892Y-2.422
X6.8924Y-3.1736
X6.8924Y-3.9256
X7.092Y-1.674
X7.092Y-2.422
X7.0924Y-3.1736
X7.0924Y-3.9256
X7.142Y-1.774
X7.142Y-2.522
X7.1424Y-3.2736
X7.1424Y-4.0256
X7.594Y-1.962
X7.5944Y-2.7056
X7.5944Y-3.4616
X7.5944Y-4.2116
X7.644Y-1.862
X7.6444Y-2.6056
X7.6444Y-3.3616
X7.6444Y-4.1116
X7.844Y-1.862
X7.8444Y-2.6056
X7.8444Y-3.3616
X7.8444Y-4.1116
X7.894Y-1.962
X7.8944Y-2.7056
X7.8944Y-3.4616
X7.8944Y-4.2116
X8.342Y-2.022
X8.3424Y-2.7656
X8.3424Y-3.5216
X8.3444Y-4.27
X8.392Y-1.922
X8.3924Y-2.6656
X8.3924Y-3.4216
X8.3944Y-4.17
X8.592Y-1.922
X8.5924Y-2.6656
X8.5924Y-3.4216
X8.5944Y-4.17
X8.642Y-2.022
X8.6424Y-2.7656
X8.6424Y-3.5216
X8.6444Y-4.27
T12
X3.9924Y-3.8376
X4.1336Y-4.9991
X4.7436Y-1.9696
X4.7444Y-2.7196
X4.7444Y-3.4676
X4.7444Y-4.2156
X5.1184Y-4.9596
X5.4916Y-1.8736
X5.4924Y-2.6276
X5.4924Y-3.3736
X5.4924Y-4.1256
X5.8664Y-4.8716
X6.2444Y-1.8196
X6.2444Y-3.3216
X6.2444Y-4.0696
X6.246Y-2.57
X6.618Y-4.872
X6.992Y-1.874
X6.992Y-2.622
X6.9924Y-3.3736
X6.9924Y-4.1256
X7.744Y-2.062
X7.7444Y-2.8056
X7.7444Y-3.5616
X7.7444Y-4.3116
X8.492Y-2.122
X8.4924Y-2.8656
X8.4924Y-3.6216
X8.4944Y-4.37
T2
G00X3.3091Y-1.6555
M15
G01X3.3091Y-1.6988
M16
G05
G00X3.3091Y-1.7736
M15
G01X3.3091Y-1.8169
M16
G05
G00X3.3091Y-1.9311
M15
G01X3.3091Y-1.9744
M16
G05
G00X3.378Y-1.9902
M15
G01X3.378Y-2.0335
M16
G05
G00X3.4744Y-1.9902
M15
G01X3.4744Y-2.0335
M16
G05
G00X3.5433Y-1.6555
M15
G01X3.5433Y-1.6988
M16
G05
G00X3.5433Y-1.7736
M15
G01X3.5433Y-1.8169
M16
G05
G00X3.5433Y-1.9311
M15
G01X3.5433Y-1.9744
M16
G05
T6
G00X3.8746Y-3.6508
M15
G01X3.9209Y-3.6292
M16
G05
G00X4.0609Y-4.0505
M15
G01X4.1073Y-4.0288
M16
G05
T0
M30
